{
    "asset" : {
        "generator" : "Khronos glTF Blender I/O v1.5.17",
        "version" : "2.0"
    },
    "scene" : 0,
    "scenes" : [
        {
            "extras" : {
                "glTF2ExportSettings" : {
                    "export_extras" : 1,
                    "export_format" : "GLTF_EMBEDDED",
                    "use_selection" : 1
                }
            },
            "name" : "Scene",
            "nodes" : [
                0
            ]
        }
    ],
    "nodes" : [
        {
            "mesh" : 0,
            "name" : "Plant",
            "scale" : [
                0.6774426698684692,
                0.6774426698684692,
                0.6774426698684692
            ]
        }
    ],
    "meshes" : [
        {
            "name" : "Sphere.005",
            "primitives" : [
                {
                    "attributes" : {
                        "POSITION" : 0,
                        "NORMAL" : 1,
                        "TEXCOORD_0" : 2
                    },
                    "indices" : 3
                }
            ]
        }
    ],
    "accessors" : [
        {
            "bufferView" : 0,
            "componentType" : 5126,
            "count" : 2306,
            "max" : [
                2.855280876159668,
                2.9473702907562256,
                2.855280876159668
            ],
            "min" : [
                -2.855280876159668,
                0,
                -2.855280876159668
            ],
            "type" : "VEC3"
        },
        {
            "bufferView" : 1,
            "componentType" : 5126,
            "count" : 2306,
            "type" : "VEC3"
        },
        {
            "bufferView" : 2,
            "componentType" : 5126,
            "count" : 2306,
            "type" : "VEC2"
        },
        {
            "bufferView" : 3,
            "componentType" : 5123,
            "count" : 3630,
            "type" : "SCALAR"
        }
    ],
    "bufferViews" : [
        {
            "buffer" : 0,
            "byteLength" : 27672,
            "byteOffset" : 0
        },
        {
            "buffer" : 0,
            "byteLength" : 27672,
            "byteOffset" : 27672
        },
        {
            "buffer" : 0,
            "byteLength" : 18448,
            "byteOffset" : 55344
        },
        {
            "buffer" : 0,
            "byteLength" : 7260,
            "byteOffset" : 73792
        }
    ],
    "buffers" : [
        {
            "byteLength" : 81052,
            "uri" : "data:application/octet-stream;base64,"
        }
    ]
}
