<?xml version="1.0" encoding="utf-8"?>
<!-- Svg Vector Icons : http://www.onlinewebfonts.com/icon -->
<!DOCTYPE svg PUBLIC "-//W3C//DTD SVG 1.1//EN" "http://www.w3.org/Graphics/SVG/1.1/DTD/svg11.dtd">
<svg version="1.1" xmlns="http://www.w3.org/2000/svg" xmlns:xlink="http://www.w3.org/1999/xlink" x="0px" y="0px" viewBox="0 0 1000 1000" enable-background="new 0 0 1000 1000" xml:space="preserve">
<metadata> Svg Vector Icons : http://www.onlinewebfonts.com/icon </metadata>
<g><g transform="translate(0.000000,511.000000) scale(0.100000,-0.100000)"><path d="M4917.1,3696.4c-36.3-47-68.3-61.9-155.8-72.6c-68.3-8.5-123.8-4.3-149.4,10.7c-32,21.3-64,12.8-172.9-42.7c-134.5-70.5-198.5-83.3-251.9-49.1c-44.8,27.8-207.1-87.5-224.1-158c-8.5-32-55.5-100.3-104.6-153.7l-89.7-98.2l-219.9,14.9c-200.7,12.8-228.4,10.7-292.5-29.9l-72.6-44.8l98.2-164.4c164.4-273.2,183.6-318.1,181.5-441.9c0-113.1,2.1-119.5,83.2-166.5c55.5-34.2,74.7-57.6,61.9-70.4c-25.6-25.6,8.5-136.6,85.4-286c47-91.8,36.3-125.9-34.2-128.1c-38.4,0-230.5,70.4-298.9,111c-70.4,42.7-76.8,96.1-17.1,147.3c40.6,32,38.4,61.9-6.4,96.1c-42.7,32-123.8,36.3-245.5,17.1c-61.9-10.7-81.1-23.5-81.1-57.6c0-34.2-6.4-36.3-32-14.9c-34.2,27.7-405.6,23.5-452.6-6.4c-36.3-21.3,38.4-177.2,115.3-241.2c49.1-40.6,51.2-51.2,29.9-128.1c-44.8-158-32-226.3,57.6-313.8c72.6-70.5,93.9-79,190-79c72.6,0,149.4-19.2,232.7-57.6l123.8-55.5l149.4,38.4c143,36.3,149.4,36.3,177.2-2.1c23.5-32,21.3-42.7-4.3-72.6c-17.1-19.2-47-111-66.2-204.9c-46.9-230.5-117.4-286-266.8-209.2c-61.9,29.9-66.2,29.9-151.6-32c-113.1-83.3-187.8-87.5-187.8-12.8c0,42.7-17.1,61.9-68.3,83.3c-93.9,40.6-192.1-6.4-241.2-115.3c-25.6-57.6-81.1-111-185.7-183.6c-200.7-136.6-204.9-140.9-219.9-269c-17.1-145.2,15-239.1,74.7-219.9c42.7,12.8,59.8-19.2,21.3-42.7c-10.7-6.4-21.3-36.3-21.3-66.2c0-36.3-17.1-57.6-53.4-72.6c-66.2-25.6-66.2-44.8-2.1-147.3c27.8-44.8,57.6-125.9,66.2-181.5c10.7-64,29.9-106.7,55.5-119.5c57.6-32,333-27.7,345.8,6.4c21.3,57.6,53.4-21.3,61.9-157.9c10.7-136.6,10.7-140.9-49.1-166.5c-51.2-21.3-57.6-34.2-42.7-74.7c23.5-59.8,6.4-153.7-32-185.7c-17.1-12.8-29.9-32-29.9-42.7c0-23.5,98.2-25.6,145.2,0c19.2,8.5,83.3,23.5,138.8,29.9c85.4,12.8,104.6,8.6,115.3-23.5c27.7-76.9,53.4-93.9,91.8-57.6c34.2,32,38.4,29.9,51.2-25.6c44.8-183.6,59.8-219.9,87.5-219.9c21.3,0,32,21.3,32,59.8c0,104.6,117.4,162.2,132.4,64c8.5-61.9,79-74.7,170.8-29.9c36.3,19.2,70.4,34.2,76.8,34.2c19.2,0-21.3-117.4-53.4-149.4c-17.1-17.1-76.8-117.4-132.4-222c-93.9-175-111-194.3-196.4-224.1c-79-29.9-98.2-49.1-125.9-125.9c-23.5-70.4-38.4-87.5-70.4-76.9c-21.3,6.4-113.2-4.3-200.7-23.5c-138.8-32-177.2-49.1-247.6-121.7c-79-79-85.4-81.1-121.7-49.1c-70.4,64-367.2,10.7-467.5-81.1c-96.1-89.6-226.3-123.8-388.5-104.6c-219.9,27.8-356.5-51.2-260.4-147.3c40.5-40.6,44.8-40.6,106.7-6.4c59.8,36.3,70.4,36.3,187.8,2.1c125.9-36.3,125.9-36.3,215.6,17.1c51.2,29.9,123.8,53.4,168.6,53.4c47,0,104.6,19.2,143,44.8c57.6,42.7,68.3,42.7,143,14.9c70.5-27.7,89.7-27.7,183.6,4.3c217.7,74.7,207.1,74.7,190,12.8c-17.1-72.6,27.8-74.7,59.8-2.1c19.2,44.8,38.4,53.4,117.4,53.4c51.2,0,111-8.6,132.3-21.3c29.9-14.9,49.1-6.4,85.4,44.8c47,61.9,47,66.2,10.7,91.8c-34.1,25.6-27.7,34.2,68.3,74.7c57.6,27.7,170.8,61.9,249.8,81.1c236.9,53.4,851.7,405.6,984.1,563.5c32,36.3,53.4,81.1,47,98.2c-8.5,17.1-12.8,38.4-12.8,49.1c0,8.6-27.7,27.8-61.9,42.7c-44.8,17.1-57.6,36.3-51.2,66.2c17.1,59.8,151.6,160.1,258.3,192.1c68.3,19.2,102.5,44.8,126,91.8c145.2,288.2,373.6,473.9,544.3,448.3c76.8-12.8,123.8-55.5,123.8-113.2c0-36.3-87.5-27.7-130.2,10.7c-36.3,32-44.8,29.9-130.2-17.1c-72.6-38.4-93.9-64-104.6-123.8c-8.5-40.6-42.7-128.1-79-192.1c-81.1-138.8-83.3-166.5-21.3-175c25.6-4.3,49.1-19.2,55.5-32c8.5-27.7-6.4-36.3-108.9-59.8c-47-8.5-59.8-23.5-53.4-59.8c6.4-40.6,21.3-47,117.4-53.4c87.5-4.3,128.1,4.3,192.1,44.8c44.8,27.7,96.1,68.3,111,87.5c17.1,19.2,66.2,64,111,100.3l83.3,66.2l64-47c49.1-36.3,72.6-40.6,93.9-23.5c40.6,34.1,91.8,8.5,106.7-53.4c19.2-72.6,55.5-64,160.1,42.7c72.6,74.7,89.7,102.5,76.9,140.9l-15,47l-57.6-55.5c-79-76.8-89.7-70.4-55.5,29.9c19.2,55.5,21.3,89.7,8.5,98.2c-25.6,15-23.5,15-55.5-55.5l-25.6-53.4v53.4c-2.1,29.9-8.5,74.7-14.9,98.2c-10.7,36.3,2.1,51.3,59.8,72.6c38.4,14.9,115.3,34.1,170.8,40.6l98.2,14.9l61.9-125.9c47-100.3,74.7-134.5,134.5-160.1c40.6-14.9,128.1-61.9,192.1-100.3c108.9-64,128.1-68.3,258.3-59.8c121.7,10.7,160.1,2.1,320.2-64c98.2-40.6,207.1-79,241.2-87.5c66.2-17.1,166.5,15,234.8,70.5c38.4,32,38.4,32,27.7-29.9c-6.4-34.1-19.2-87.5-25.6-117.4c-12.8-57.6-15-57.6,245.5-198.5c64-36.3,183.6-126,264.7-200.7c138.8-128.1,149.4-134.5,234.8-121.7l87.5,10.7l-57.6-34.1c-70.4-38.4-79-121.7-21.3-164.4c55.5-40.5,132.4-175.1,132.4-228.4c0-68.3,38.4-130.2,81.1-130.2c23.5,0,70.4-59.8,128.1-158c123.8-215.6,149.4-222,136.6-27.8c-12.8,192.1,17.1,168.7,68.3-53.4c40.5-177.2,83.2-204.9,106.7-70.4c23.5,121.7,55.5,108.9,55.5-23.5c0-83.2,10.7-134.5,36.3-162.2c32-36.3,32-40.5-4.3-81.1c-32-34.1-34.1-47-10.7-74.7c15-19.2,40.6-29.9,55.5-23.5c17.1,6.4,44.8-25.6,72.6-79c70.4-138.8,117.4-194.3,158-179.3c29.9,12.8,29.9,21.3-10.7,89.7c-55.5,91.8-23.5,96.1,72.6,10.7c40.6-34.1,85.4-64,98.2-64c36.3,0,29.9,183.6-8.6,258.3c-51.2,98.2-19.2,111,102.5,40.6c70.4-40.6,123.8-89.7,149.4-138.8c21.3-42.7,53.4-83.3,72.6-89.6c49.1-19.2,130.2,91.8,147.3,200.7c12.8,83.2-23.5,341.5-53.4,386.4c-6.4,10.7-113.1,57.6-236.9,104.6c-217.7,85.4-226.3,89.6-277.5,192.1c-29.9,55.5-98.2,160.1-151.6,230.5c-53.4,70.4-138.8,198.5-187.9,283.9c-76.8,130.2-106.7,162.2-183.6,196.4c-51.2,21.3-98.2,59.8-106.7,83.3c-6.4,23.5-36.3,61.9-66.2,85.4c-29.9,23.5-64,74.7-74.7,113.1c-10.7,42.7-47,87.5-89.7,115.3c-68.3,44.8-70.4,44.8-119.6,6.4c-27.8-23.5-61.9-40.6-79-40.6c-40.6,0-93.9-85.4-93.9-151.6c0-47-19.2-68.3-93.9-111l-93.9-53.4l-15,57.7c-8.5,29.9-89.7,134.5-183.6,228.4c-128.1,132.4-168.6,187.9-168.6,232.7c0,55.5-4.3,57.6-79,44.8c-200.7-34.2-239.1-36.3-283.9-12.8l-49.1,25.6l12.8,2004.5l12.8,2004.5l-91.8,61.9c-51.2,36.3-147.3,87.5-215.6,117.4c-119.5,53.4-123.8,55.5-222,21.3c-96.1-36.3-100.3-36.3-211.3,21.3c-72.6,36.3-128.1,51.2-162.2,42.7c-38.4-8.5-89.6,12.8-196.4,83.3c-130.2,85.4-164.4,98.2-307.4,108.9c-194.3,17.1-256.2,51.2-256.2,147.3c0,38.4-10.7,81.1-25.6,96.1c-36.3,36.3-177.2,32-209.2-6.4c-32-40.6-70.4-19.2-57.6,32c17.1,61.9-185.7,234.8-273.2,234.8C4981.2,3758.3,4940.6,3730.5,4917.1,3696.4z"/><path d="M1523,1593.7c-59.8-74.7-42.7-183.6,29.9-183.6c85.4,0,125.9-34.2,175-149.4c42.7-100.3,51.2-106.7,121.7-106.7c83.3,0,83.3-2.1,8.5,192.1c-27.7,70.4-51.2,98.2-93.9,108.9c-72.6,19.2-115.3,55.5-162.2,132.3l-38.4,59.8L1523,1593.7z"/><path d="M684.1,479.4c0-68.3,76.8-181.5,115.3-166.5c21.3,8.5,14.9,36.3-27.7,115.3C709.7,547.7,684.1,562.7,684.1,479.4z"/><path d="M1708.7-199.4c0-93.9,134.5-226.3,230.5-226.3c53.4,0,74.7,12.8,100.3,64c64,123.8,44.8,143-202.8,200.7l-128.1,27.8V-199.4z"/><path d="M6048.5-1102.4c-29.9-10.7-38.4-113.1-10.7-113.1c42.7,0,96.1,59.8,83.3,93.9C6106.2-1087.4,6093.3-1083.2,6048.5-1102.4z"/><path d="M4473.1-1858c-93.9-70.5-219.9-158-279.7-192.1c-153.7-87.5-155.8-93.9-130.2-249.8c21.3-125.9,27.7-134.5,93.9-151.6c66.2-19.2,91.8-10.7,275.4,98.2c108.9,64,207.1,125.9,213.5,136.6c6.4,12.8-2.1,42.7-21.3,70.5c-17.1,29.9-25.6,70.4-19.2,98.2c10.7,42.7,6.4,47-27.8,32c-44.8-19.2-155.8-19.2-177.2,0c-23.5,25.6,51.2,53.4,108.9,40.6c66.2-12.8,230.5,61.9,230.5,108.8c0,14.9-19.2,36.3-44.8,42.7c-29.9,10.7-40.5,27.8-34.2,55.5c6.4,21.3,4.3,40.6-2.1,40.6C4650.3-1727.9,4567.1-1787.6,4473.1-1858z"/><path d="M2428.1-2669.2c-27.8-17.1-32-29.9-14.9-64c27.7-49.1,42.7-51.3,96.1-10.7c34.1,25.6,36.3,34.1,12.8,64C2487.9-2639.4,2479.3-2639.4,2428.1-2669.2z"/><path d="M769.5-2686.3c-29.9-8.5-51.2-29.9-47-44.8c8.5-38.4-81.1-128.1-126-128.1c-21.3,0-49.1,19.2-61.9,42.7c-12.8,23.5-44.8,49.1-74.7,55.5c-66.2,17.1-237-40.5-318.1-104.6c-87.5-70.4-34.2-85.4,126-32c123.8,38.4,134.5,38.4,279.6,4.3c136.6-34.2,166.5-34.2,264.7-6.4c153.7,40.6,177.2,83.3,96.1,168.6c-34.2,34.2-66.2,64-72.6,61.9S799.3-2677.8,769.5-2686.3z"/><path d="M3666.2-2714.1c-34.2-25.6-34.2-32-6.4-70.4c42.7-57.6,93.9-12.8,64,53.4C3706.8-2692.7,3698.3-2690.6,3666.2-2714.1z"/><path d="M2545.5-2784.5c-23.5-49.1-21.3-53.4,27.7-53.4c51.2,0,108.9,66.2,81.1,93.9C2624.5-2714.1,2566.9-2735.4,2545.5-2784.5z"/></g></g>
</svg>