<?xml version="1.0" encoding="utf-8"?>
<!-- Svg Vector Icons : http://www.onlinewebfonts.com/icon -->
<!DOCTYPE svg PUBLIC "-//W3C//DTD SVG 1.1//EN" "http://www.w3.org/Graphics/SVG/1.1/DTD/svg11.dtd">
<svg version="1.1" xmlns="http://www.w3.org/2000/svg" xmlns:xlink="http://www.w3.org/1999/xlink" x="0px" y="0px" viewBox="0 0 1000 1000" enable-background="new 0 0 1000 1000" xml:space="preserve">
<metadata> Svg Vector Icons : http://www.onlinewebfonts.com/icon </metadata>
<g><g transform="translate(0.000000,511.000000) scale(0.100000,-0.100000)"><path d="M5666.8,4984.4c-123.6-8.5-794.6-70.3-1491.2-134.2c-696.6-66-1440.1-127.8-1648.8-138.5c-210.9-12.8-387.7-27.7-394.1-34.1c-6.4-6.4-10.6-485.7-6.4-1063c2.1-579.4-8.5-1580.7-27.7-2224c-17-645.5-38.3-1548.7-44.7-2008.9l-14.9-837.2l129.9-884.1c106.5-724.3,259.9-1993.9,259.9-2153.7c0-32,23.4-38.4,159.8-44.7l157.6-6.4l74.6,159.8c40.5,87.3,93.7,227.9,119.3,308.9c27.7,83.1,51.1,153.4,55.4,157.6c4.3,4.2,51.1-4.3,104.4-19.2l98-27.7l138.5-272.7c74.6-151.3,136.3-291.9,136.3-315.3c0-25.5-44.7-72.4-119.3-125.7c-108.6-76.7-112.9-85.2-68.2-98c119.3-32,213-10.7,449.5,100.1l240.7,115l-27.7,357.9c-14.9,196-27.7,357.9-32,360c-53.3,34.1-219.4,168.3-289.7,234.3l-89.5,85.2v176.8c0,98,8.5,176.8,17,176.8c10.7,0,189.6,23.4,400.5,53.3c313.1,44.7,2068.5,249.3,3012.2,353.6c123.6,12.8,398.4,29.8,609.3,38.4l385.6,12.8l-40.5,108.6c-29.8,78.8-59.6,117.2-115,147c-110.8,59.6-123.6,100.1-83.1,225.8c57.5,174.7,29.8,502.8-68.2,779.7l-76.7,219.4l34.1,227.9c21.3,140.6,63.9,308.9,108.7,432.4c49,127.8,76.7,240.7,76.7,304.6c0,100.1-2.1,102.3-93.8,142.7c-93.7,38.3-93.7,40.5-108.6,174.7c-19.2,157.6-27.7,176.8-159.8,347.2C7351.8,502.3,7317.7,579,7236.8,824c-53.3,164-127.8,438.8-164,609.3c-36.2,172.5-93.7,396.2-129.9,500.6c-34.1,104.4-144.9,524-242.9,930.9c-166.2,686-191.7,769-336.6,1107.7c-172.6,402.6-215.2,568.8-217.3,850V5010l-127.8-2.1C5948,5005.7,5790.3,4995.1,5666.8,4984.4z"/></g></g>
</svg>