<?xml version="1.0" encoding="utf-8"?>
<!-- Svg Vector Icons : http://www.onlinewebfonts.com/icon -->
<!DOCTYPE svg PUBLIC "-//W3C//DTD SVG 1.1//EN" "http://www.w3.org/Graphics/SVG/1.1/DTD/svg11.dtd">
<svg version="1.1" xmlns="http://www.w3.org/2000/svg" xmlns:xlink="http://www.w3.org/1999/xlink" x="0px" y="0px" viewBox="0 0 1000 1000" enable-background="new 0 0 1000 1000" xml:space="preserve">
<metadata> Svg Vector Icons : http://www.onlinewebfonts.com/icon </metadata>
<g><g transform="translate(0.000000,511.000000) scale(0.100000,-0.100000)"><path d="M7047.5,4511.9C5372,4435.2,3208.3,4367,1292,4328.6c-650.2-12.8-1187.4-25.6-1191.6-29.8c-4.3-4.3,32-176.9,81-383.7l87.4-375.2v-473.2c0-424.2,8.5-541.5,85.3-1144.7l85.3-671.5l2.1-1630.7c2.1-897.4,8.5-1854.6,17.1-2129.6l12.8-498.8l123.6-106.6l121.5-106.6l168.4,78.9l168.4,78.8l159.9-66.1l157.8-66.1l14.9-388c8.5-213.2,19.2-477.5,27.7-584.1l12.8-198.2h1227.9c965.7,0,1485.8,10.6,2432.3,53.3c662.9,29.9,1345.1,53.3,1515.6,53.3c170.5,0,411.4,6.4,535.1,12.8l221.7,14.9l59.7,113c57.5,110.8,59.7,123.7,44.8,315.5c-12.8,194-19.2,208.9-117.2,368.8l-104.5,166.3l89.5,91.7c83.1,83.1,87.4,93.8,57.6,138.6c-14.9,25.6-55.4,89.5-87.4,142.8l-59.7,95.9l115.1,458.3c123.6,496.7,106.6,460.4,317.6,633.1l85.3,68.2l-38.4,132.1l-36.2,132.2l208.9,309.1c208.9,307,208.9,307,364.5,383.7c172.7,87.4,170.5,78.9,130,321.9l-23.5,144.9l166.3,315.5L8699.5,417l132.2,70.4c130,72.5,130,72.5,145,183.3c36.3,294.2,27.7,277.1,136.4,349.6l100.2,70.3l46.9,240.9l46.9,240.9l-76.7,230.2c-42.6,125.8-74.6,230.2-70.4,234.5c4.3,2.1,108.7,64,232.4,136.4l223.8,130l132.2,475.4c170.5,605.4,174.8,622.4,121.5,605.4c-21.3-6.4-121.5-29.8-219.6-53.3c-166.3-40.5-204.6-40.5-522.3-19.2c-189.7,12.8-347.5,27.7-349.6,29.8c-4.3,2.1,8.5,81,27.7,172.7l36.2,166.3l187.6,157.7c183.3,153.5,185.5,157.7,208.9,285.6l23.5,127.9l-100.2,166.3l-100.2,168.4l-223.8-2.1C8714.5,4582.3,7908.7,4550.3,7047.5,4511.9z"/></g></g>
</svg>