<?xml version="1.0" encoding="utf-8"?>
<!-- Svg Vector Icons : http://www.onlinewebfonts.com/icon -->
<!DOCTYPE svg PUBLIC "-//W3C//DTD SVG 1.1//EN" "http://www.w3.org/Graphics/SVG/1.1/DTD/svg11.dtd">
<svg version="1.1" xmlns="http://www.w3.org/2000/svg" xmlns:xlink="http://www.w3.org/1999/xlink" x="0px" y="0px" viewBox="0 0 1000 1000" enable-background="new 0 0 1000 1000" xml:space="preserve">
<metadata> Svg Vector Icons : http://www.onlinewebfonts.com/icon </metadata>
<g><g transform="translate(0.000000,511.000000) scale(0.100000,-0.100000)"><path d="M3125,4984.4c0-12.8-44.7-298.3-98-630.6c-93.7-588-100.1-611.4-172.6-722.2c-72.4-108.6-81-112.9-168.3-112.9c-89.5,0-95.9,4.3-127.8,85.2c-38.3,95.9-83.1,127.8-174.7,127.8c-34.1,0-78.8,19.2-100.1,42.6c-51.1,55.4-91.6,53.3-206.7-10.7l-95.9-53.3l-12.8-336.6c-6.4-183.2-23.4-524.1-36.2-756.3c-21.3-387.7-27.7-430.4-74.6-500.7c-27.7-44.7-59.6-130-72.4-191.7c-23.4-110.8-23.4-112.9,81-298.3c78.8-142.7,110.8-232.2,142.7-385.6c34.1-170.4,49-210.9,106.5-266.3c55.4-55.4,66-78.8,57.5-140.6c-12.8-87.4-53.3-125.7-240.7-221.6c-76.7-40.5-164-100.1-196-134.2c-83.1-87.3-157.7-289.7-185.3-496.4c-23.4-172.6-27.7-183.2-121.4-279.1c-53.3-55.4-127.8-108.7-164-119.3l-68.2-19.2l-23.4-274.8c-14.9-151.3-21.3-287.6-14.9-302.5c6.4-14.9,68.2-32,138.5-40.5l127.8-14.9l-12.8-91.6c-6.4-51.1-38.4-132.1-68.2-179c-55.4-83.1-74.6-93.8-266.3-136.4c-29.8-6.4-95.9-44.7-149.1-85.2C834.8-1637,790-1726.4,822-1781.8c8.5-17,319.6-200.3,688.1-409c368.6-208.8,864.9-500.7,1105.7-649.8c238.6-151.2,664.7-406.9,945.9-570.9c281.2-164.1,784-460.2,1116.4-658.3l602.9-360l419.7-85.2c302.5-61.8,658.3-110.8,1288.9-179c479.3-53.3,892.6-95.9,916.1-95.9c98,0,223.7,813.8,779.7,5027.8c140.6,1071.6,313.2,2352,381.4,2844.1c68.2,492.1,123.6,896.9,121.4,899.1c-2.1,0-394.1,61.8-875.6,134.2c-1188.8,176.8-2767.4,447.4-4056.3,690.3C3664,4918.4,3167.6,5010,3152.7,5010C3137.8,5010,3125,4999.4,3125,4984.4z"/></g></g>
</svg>