<?xml version="1.0" encoding="utf-8"?>
<!-- Svg Vector Icons : http://www.onlinewebfonts.com/icon -->
<!DOCTYPE svg PUBLIC "-//W3C//DTD SVG 1.1//EN" "http://www.w3.org/Graphics/SVG/1.1/DTD/svg11.dtd">
<svg version="1.1" xmlns="http://www.w3.org/2000/svg" xmlns:xlink="http://www.w3.org/1999/xlink" x="0px" y="0px" viewBox="0 0 1000 1000" enable-background="new 0 0 1000 1000" xml:space="preserve">
<metadata> Svg Vector Icons : http://www.onlinewebfonts.com/icon </metadata>
<g><g transform="translate(0.000000,511.000000) scale(0.100000,-0.100000)"><path d="M2691.8,4909.8c-19.2-55.4-34.1-164.2-34.1-243.1c0-123.7-12.8-172.8-108.8-390.3c-70.4-157.8-132.2-266.6-170.6-298.6c-34.1-29.9-61.8-61.8-61.8-74.6c0-10.7-19.2-25.6-40.5-34.1c-27.7-8.5-57.6-57.6-85.3-142.9c-55.4-166.4-55.4-183.4,6.4-273c145-213.3,202.6-560.9,121.6-720.9c-21.3-42.7-46.9-132.2-55.5-196.2c-6.4-64-23.5-153.6-34.1-198.3c-19.2-74.6-12.8-96,108.8-324.2c115.2-217.5,219.7-464.9,202.6-484.1c-2.1-2.1-10.7-51.2-19.2-106.6c-14.9-96-12.8-100.2,104.5-230.3c64-74.6,117.3-145,117.3-160c0-12.8-14.9-72.5-32-130.1c-17.1-57.6-32-185.5-32-285.8c0-172.8,4.3-187.7,81-305c57.6-91.7,96-128,138.6-136.5c130.1-25.6,119.4-249.5-14.9-313.5c-57.6-27.7-74.6-49.1-85.3-115.2c-14.9-102.4,10.7-194.1,81-287.9c29.9-40.5,93.8-187.7,138.6-330.6c51.2-157.8,125.8-328.5,189.8-437.2c57.6-98.1,113-209,119.4-245.3c8.5-36.3,29.9-76.8,46.9-91.7c42.7-34.1,36.3-83.2-32-337l-61.9-221.8l42.7-59.7c34.1-44.8,72.5-64,172.7-81.1c70.4-12.8,194.1-55.4,275.1-98.1c81-40.5,177-74.6,211.1-74.6c70.4,0,149.3-93.8,253.8-300.7c53.3-102.4,76.8-125.8,168.5-166.4c57.6-23.4,130.1-44.8,160-44.8c104.5,0,196.2-153.6,142.9-238.9c-36.3-59.7-14.9-76.8,115.2-91.7c104.5-14.9,121.6-23.5,164.2-93.9c25.6-42.6,93.8-132.2,149.3-200.5c55.4-68.3,102.4-132.2,102.4-142.9s29.8-66.1,64-121.6c61.8-98.1,64-106.6,64-371.1c0-189.8,8.5-277.3,27.7-292.2c12.8-10.7,313.5-59.7,667.5-108.8c479.9-68.2,718.7-91.7,957.6-93.8l317.8-4.3l51.2,74.6l51.2,74.6l-61.9,6.4c-100.2,12.8-110.9,34.1-96,223.9l10.7,174.9l104.5,91.7c89.6,81,102.4,104.5,102.4,177c0,93.8,44.8,219.7,100.2,281.5c21.3,21.3,83.2,64,138.6,96c55.4,32,106.6,68.3,110.9,83.2c6.4,12.8-8.5,59.7-32,104.5c-21.3,44.8-40.5,106.6-40.5,136.5c0,29.9-29.9,115.2-64,187.7c-36.3,74.6-64,160-64,187.7c0,51.2-518.3,870.2-1013.1,1597.4c-142.9,211.2-524.7,772.1-846.7,1247.7c-322,475.6-701.7,1040.8-842.4,1258.3l-255.9,394.6l102.4,394.6c55.4,217.5,206.9,806.2,339.1,1309.5c130.1,503.3,232.5,925.6,228.2,938.4c-6.4,12.8-223.9,81.1-486.3,147.2c-262.3,68.3-659,181.3-883,249.5c-221.8,68.3-535.3,160-693.1,200.5c-157.8,42.7-345.5,93.8-413.8,119.4c-70.4,23.5-134.4,42.7-142.9,42.7S2710.9,4965.2,2691.8,4909.8z"/><path d="M3666.4-2768.2c-21.3-55.4,87.4-134.4,185.6-134.4c44.8,0,87.4,6.4,91.7,17.1c6.4,8.5-51.2,44.8-128,83.2C3698.4-2744.7,3677.1-2740.4,3666.4-2768.2z"/><path d="M3446.7-2793.7c0-59.7,29.9-87.4,98.1-87.4c74.6,0,93.8,34.1,46.9,81C3561.9-2770.3,3446.7-2766,3446.7-2793.7z"/><path d="M4491.8-3548.7c0-46.9,138.6-194.1,166.4-177c42.7,25.6,27.7,76.8-42.7,142.9C4540.8-3516.7,4491.8-3504,4491.8-3548.7z"/><path d="M4415-4013.7c17.1-85.3,70.4-149.3,110.9-132.2c23.5,8.5,19.2,29.8-23.5,98.1C4434.2-3932.6,4395.8-3917.7,4415-4013.7z"/></g></g>
</svg>