<?xml version="1.0" encoding="utf-8"?>
<!-- Svg Vector Icons : http://www.onlinewebfonts.com/icon -->
<!DOCTYPE svg PUBLIC "-//W3C//DTD SVG 1.1//EN" "http://www.w3.org/Graphics/SVG/1.1/DTD/svg11.dtd">
<svg version="1.1" xmlns="http://www.w3.org/2000/svg" xmlns:xlink="http://www.w3.org/1999/xlink" x="0px" y="0px" viewBox="0 0 1000 1000" enable-background="new 0 0 1000 1000" xml:space="preserve">
<metadata> Svg Vector Icons : http://www.onlinewebfonts.com/icon </metadata>
<g><g transform="translate(0.000000,511.000000) scale(0.100000,-0.100000)"><path d="M973.7,3937.5c0-83.1-242.9-2003.2-330.3-2612.7C481.5,191,100-2645.4,100-2722.1c0-55.4,8.5-66.1,68.2-76.7c38.4-6.4,799.2-91.6,1689.9-191.8c890.8-98,2128.9-236.5,2749.1-306.9c1809.3-204.6,3458.7-362.3,4183.3-400.6c366.5-19.2,669.2-29.8,675.5-25.6c4.3,6.4,85.2,1204.1,179,2661.7c93.8,1459.8,191.8,2962.2,217.4,3341.5c25.6,377.2,42.6,692.6,36.2,696.9c-6.4,6.4-560.5,63.9-1233.9,127.9c-1280.8,123.6-5734.7,609.5-6923.9,756.5C1046.2,3946,973.7,3954.5,973.7,3937.5z"/></g></g>
</svg>