<?xml version="1.0" encoding="utf-8"?>
<!-- Svg Vector Icons : http://www.onlinewebfonts.com/icon -->
<!DOCTYPE svg PUBLIC "-//W3C//DTD SVG 1.1//EN" "http://www.w3.org/Graphics/SVG/1.1/DTD/svg11.dtd">
<svg version="1.1" xmlns="http://www.w3.org/2000/svg" xmlns:xlink="http://www.w3.org/1999/xlink" x="0px" y="0px" viewBox="0 0 1000 1000" enable-background="new 0 0 1000 1000" xml:space="preserve">
<metadata> Svg Vector Icons : http://www.onlinewebfonts.com/icon </metadata>
<g><g transform="translate(0.000000,511.000000) scale(0.100000,-0.100000)"><path d="M7981.8,4775.2c-475.3-104.4-1941.6-426.3-3260.9-714C338.9,3104.2,113,3053.1,100.2,3042.4c-6.4-8.5,149.2-820.6,345.3-1809.5L801.4-561.7l-2.1-1349.1v-1347l-194-385.8c-168.4-338.9-187.5-390-162-422c17.1-19.2,157.7-181.2,311.2-360.2l283.5-324l100.2,70.3c53.3,38.4,430.5,298.4,837.6,577.6c737.4,505.1,739.6,507.2,1353.4,1065.7c349.5,317.6,746,703.3,920.7,893c168.4,183.3,315.4,334.6,326.1,334.6c10.7,0,72.5-42.6,138.5-95.9c63.9-53.3,125.7-95.9,134.3-95.9c10.7,0,223.8,108.7,473.2,240.8l454,240.9l873.8,189.7l873.8,189.7l1189.3,592.5C9456.7-175.9,9900,56.4,9900,75.6c0,95.9-230.2,1534.6-341,2133.5c-106.6,579.7-176.9,878.1-396.4,1694.4C8851.4,5065,8877,4969.1,8859.9,4967C8851.4,4967,8457.1,4879.6,7981.8,4775.2z"/></g></g>
</svg>