<?xml version="1.0" encoding="utf-8"?>
<!-- Svg Vector Icons : http://www.onlinewebfonts.com/icon -->
<!DOCTYPE svg PUBLIC "-//W3C//DTD SVG 1.1//EN" "http://www.w3.org/Graphics/SVG/1.1/DTD/svg11.dtd">
<svg version="1.1" xmlns="http://www.w3.org/2000/svg" xmlns:xlink="http://www.w3.org/1999/xlink" x="0px" y="0px" viewBox="0 0 1000 1000" enable-background="new 0 0 1000 1000" xml:space="preserve">
<metadata> Svg Vector Icons : http://www.onlinewebfonts.com/icon </metadata>
<g><g transform="translate(0.000000,511.000000) scale(0.100000,-0.100000)"><path d="M2690.9,4743.6c-187.5-147-453.9-377.2-592.4-515.7l-249.3-249.3l242.9-703.3c134.3-387.9,417.7-1138,630.8-1670.8L3108.6,637l351.6-1621.7c228-1052.8,449.7-2003.2,628.7-2708.6c153.4-596.7,281.3-1091.1,287.7-1095.4c4.3-4.2,385.7,2.1,843.9,17.1l837.5,25.5l1044.2,204.6c575.4,112.9,1046.3,206.7,1048.5,208.8c8.5,6.4-745.9,2450.7-760.8,2467.8c-8.5,10.6-85.2-17.1-170.5-59.7l-155.6-78.8l-407,277.1c-223.8,151.3-496.5,336.7-605.2,413.4l-200.3,136.4l-302.6,797c-294.1,777.8-311.1,816.2-630.8,1400.1l-328.2,598.8L4227.5,1775c-200.3,83.1-379.3,168.3-398.5,187.5c-19.2,19.2-189.7,294.1-377.2,613.8L3108.6,3156l85.2,358c46.9,196.1,130,511.5,183.3,699c78.8,272.8,100.2,383.6,108.7,556.2l8.5,215.2l-113,12.8c-63.9,8.5-168.3,12.8-232.3,12.8C3031.9,5007.9,3029.8,5007.9,2690.9,4743.6z"/></g></g>
</svg>