<?xml version="1.0" encoding="utf-8"?>
<!-- Svg Vector Icons : http://www.onlinewebfonts.com/icon -->
<!DOCTYPE svg PUBLIC "-//W3C//DTD SVG 1.1//EN" "http://www.w3.org/Graphics/SVG/1.1/DTD/svg11.dtd">
<svg version="1.1" xmlns="http://www.w3.org/2000/svg" xmlns:xlink="http://www.w3.org/1999/xlink" x="0px" y="0px" viewBox="0 0 1000 1000" enable-background="new 0 0 1000 1000" xml:space="preserve">
<metadata> Svg Vector Icons : http://www.onlinewebfonts.com/icon </metadata>
<g><g transform="translate(0.000000,511.000000) scale(0.100000,-0.100000)"><path d="M6622.6,4202.3c-23.4-27.7-19.2-57.6,19.2-174.8c36.3-108.7,44.8-172.7,36.3-268.6c-6.4-70.3-14.9-132.2-21.3-136.4c-4.3-4.3-57.6,2.1-119.4,14.9c-108.7,23.5-108.7,23.5-108.7,106.6c0,72.5-6.4,83.1-46.9,85.3c-27.7,0-76.7,6.4-108.7,10.7c-34.1,6.4-130,0-213.2-10.7c-326.1-46.9-2214.8-153.5-2477-138.6c-292,14.9-298.4,19.2-439.1,223.8l-81,119.4l-166.3,12.8c-104.4,6.4-341.1-8.5-635.2-38.4c-596.9-63.9-1735.2-196.1-1971.8-230.2l-181.2-25.6l-6.4-98.1c-6.4-95.9-2.1-102.3,106.6-198.2c61.8-53.3,119.4-98.1,125.8-98.1c8.5,0,21.3-115.1,29.8-255.8l17-257.9l98.1,14.9c53.3,8.5,185.5,44.8,289.9,83.1c136.4,49,249.4,72.5,394.4,85.3c110.8,8.5,253.7,23.5,315.5,34.1c185.5,29.8,526.5-61.8,861.2-228.1c147.1-74.6,275-145,283.5-157.7c8.5-12.8,66.1-46.9,127.9-72.5c125.8-57.6,176.9-115.1,196.1-230.2c12.8-91.7,14.9-91.7,119.4-49c42.6,17,130,32,196.1,32c151.3,0,296.3,70.3,458.3,226c110.8,104.4,130,115.1,217.4,115.1c104.5,0,147.1,42.6,100.2,98.1c-12.8,14.9-19.2,53.3-14.9,87.4c6.4,53.3,17,59.7,134.3,85.3c183.3,36.2,255.8,34.1,356-17.1c49-25.6,147.1-66.1,217.4-93.8c110.8-40.5,142.8-66.1,211-162c59.7-85.3,102.3-123.6,164.1-142.8c72.5-25.6,87.4-42.6,117.2-134.3c32-91.7,49-113,140.7-157.7c59.7-32,125.7-87.4,155.6-132.2c51.1-74.6,70.3-85.3,262.2-136.4l208.9-53.3l64-119.4c36.2-64,100.2-162,145-213.2l78.9-95.9v-285.6c0-226-8.5-313.3-42.6-419.9c-23.4-74.6-42.6-170.5-42.6-211c0-155.6,164.1-667.2,215.3-667.2c23.5,0,36.2,23.4,81,170.5l42.6,132.2l-85.3,34.1c-44.8,17.1-83.1,40.5-83.1,51.2c0,34.1,102.3,57.5,174.8,38.4c38.4-8.5,95.9-23.5,127.9-29.8c102.3-23.5,95.9-83.1-32-296.3c-63.9-108.7-136.4-215.3-162-236.6c-25.6-23.4-44.8-49-44.8-59.7c0-12.8,76.7-102.3,168.4-202.5c100.2-108.7,206.7-251.5,262.2-351.7c51.1-91.7,136.4-228.1,191.8-302.7c55.4-74.6,125.8-196.1,155.6-270.7c32-74.6,68.2-149.2,78.9-162c36.2-44.8,108.7-32,157.7,29.9c44.8,55.4,49,57.5,104.5,27.7c74.6-40.5,215.3-283.5,234.5-405c10.7-61.8,49-142.8,113-230.2c87.4-125.8,95.9-132.2,123.6-93.8c23.5,34.1,46.9,38.4,140.7,29.9c174.8-14.9,307-108.7,439.1-307c93.8-140.7,115.1-191.8,149.2-360.3c32-166.3,46.9-204.6,95.9-240.9c53.3-38.4,66.1-40.5,138.6-14.9c42.6,14.9,102.3,51.1,132.2,76.7c36.3,34.1,91.7,53.3,181.2,63.9c162,21.3,300.5,91.7,392.2,202.5l70.4,87.4l-25.6,132.2c-17.1,98-17.1,149.2,0,194c12.8,34.1,17.1,89.5,10.6,121.5c-10.6,49-2.1,64,61.8,102.3c61.8,38.4,74.6,61.8,87.4,147.1c6.4,55.4,4.3,125.8-8.5,157.7c-10.6,29.8-27.7,213.2-34.1,405c-8.5,189.7-34.1,462.5-57.6,603.3c-38.4,240.9-49,270.7-181.2,511.6c-76.7,140.7-191.8,338.9-253.7,439.1c-61.8,100.2-147.1,253.7-189.7,341.1c-40.5,85.3-117.2,200.4-168.4,253.7c-68.2,68.2-113,144.9-162,277.1c-38.4,100.2-76.7,202.5-85.3,226c-14.9,34.1-4.3,64,42.6,117.2l59.7,72.5l-42.6,81c-21.3,44.8-149.2,189.7-281.4,324c-272.9,272.8-341.1,368.8-658.7,927.3c-228.1,400.7-381.6,761-526.5,1227.8l-66.1,215.3l-255.8,14.9c-138.6,8.5-281.4,19.2-313.4,25.6C6669.5,4232.1,6641.8,4223.6,6622.6,4202.3z"/><path d="M9869.1-2429.3c-14.9-23.5-55.4-134.3-89.5-247.3c-123.6-385.8-341.1-660.8-682.1-865.4c-185.4-110.8-226-157.7-149.2-172.6c38.4-8.5,477.5,332.5,628.8,490.3c91.6,93.8,123.6,149.2,189.7,326.1c42.6,117.2,91.7,234.5,108.7,260.1c19.2,27.7,27.7,85.3,23.4,149.2C9892.5-2399.5,9888.3-2393,9869.1-2429.3z"/><path d="M8447.3-3731.7c-40.5-27.7-95.9-83.1-121.5-125.8c-25.6-40.5-57.6-74.6-70.3-74.6c-14.9,0-61.8-10.7-108.7-23.4c-55.4-14.9-74.6-29.9-59.7-44.8s63.9-4.3,157.8,32c72.5,27.7,208.9,78.9,300.5,110.8c189.7,68.2,206.8,106.6,64,149.2C8526.2-3682.7,8513.3-3684.8,8447.3-3731.7z"/></g></g>
</svg>