<?xml version="1.0" encoding="utf-8"?>
<!-- Svg Vector Icons : http://www.onlinewebfonts.com/icon -->
<!DOCTYPE svg PUBLIC "-//W3C//DTD SVG 1.1//EN" "http://www.w3.org/Graphics/SVG/1.1/DTD/svg11.dtd">
<svg version="1.1" xmlns="http://www.w3.org/2000/svg" xmlns:xlink="http://www.w3.org/1999/xlink" x="0px" y="0px" viewBox="0 0 1000 1000" enable-background="new 0 0 1000 1000" xml:space="preserve">
<metadata> Svg Vector Icons : http://www.onlinewebfonts.com/icon </metadata>
<g><g transform="translate(0.000000,511.000000) scale(0.100000,-0.100000)"><path d="M1239.6,3178.4c-80.9-36.2-159.8-76.7-172.5-91.6c-31.9-32-95.8-296.1-76.7-313.1c8.5-8.5,119.3-59.6,245-112.9c223.7-93.7,372.8-121.4,432.4-81c12.8,8.5,51.1,87.3,87.3,174.7c61.8,151.2,63.9,168.3,44.7,293.9c-14.9,83.1-36.2,140.6-57.5,151.2c-19.2,10.6-106.5,23.4-193.8,32C1401.5,3244.5,1378,3240.2,1239.6,3178.4z"/><path d="M259.8,2741.8c-19.2-19.2-61.8-91.6-98-159.8L100,2456.3h104.4c102.3,0,102.3,0,189.6,129.9c46.9,72.4,80.9,144.8,74.6,159.8C453.6,2788.6,302.4,2784.4,259.8,2741.8z"/><path d="M3917.1,2183.7c-221.5-112.9-240.7-127.8-264.1-200.2c-23.4-78.8-21.3-85.2,132.1-317.4l157.6-236.4l95.9,14.9c53.2,6.4,125.7,23.4,157.6,36.2c53.3,19.2,66,17,119.3-34.1c49-46.9,76.7-55.4,176.8-55.4c147,0,213,23.4,255.6,91.6c34.1,51.1,34.1,51.1-87.3,121.4c-106.5,61.8-132.1,91.6-213,242.8c-138.5,257.7-259.9,460.1-276.9,458C4164.1,2305.1,4049.1,2249.7,3917.1,2183.7z"/><path d="M5429.4,1229.4c-27.7-42.6-44.7-80.9-38.3-87.3c36.2-38.3,455.8-140.6,628.4-153.4c191.7-17,202.4-14.9,311,44.7c78.8,42.6,117.2,76.7,125.7,115c8.5,31.9,12.8,57.5,8.5,61.8c-4.3,2.1-123.5,14.9-268.4,29.8c-172.6,17-270.5,19.2-287.6,4.3c-17-12.8-89.5-6.4-217.3,19.2c-106.5,23.4-196,40.5-202.4,40.5C5482.6,1306.1,5457.1,1272,5429.4,1229.4z"/><path d="M6524.2,909.9l-98-117.2l129.9-174.7c70.3-95.9,164-223.7,206.6-283.3c44.7-66,121.4-136.3,187.4-176.8L7061,92l202.4,42.6C7384.8,158,7529.6,207,7627.6,256c157.6,76.7,161.9,80.9,161.9,157.6s-6.4,83.1-191.7,200.2c-147,91.6-238.6,134.2-379.1,170.4c-102.2,25.6-274.8,91.6-381.3,144.8c-108.6,55.4-202.4,100.1-206.6,100.1C6624.3,1029.2,6577.5,976,6524.2,909.9z"/><path d="M5829.8,741.7c0-42.6,125.7-332.3,161.9-370.6c12.8-12.8,242.8,68.2,264.1,93.7c40.5,51.1,29.8,132.1-32,217.3c-68.2,93.7-119.3,112.9-302.5,112.9C5838.4,794.9,5829.8,790.6,5829.8,741.7z"/><path d="M7930.1-495.9c-53.3-46.8-59.6-61.8-46.9-140.6c8.5-49,42.6-123.5,76.7-166.2c36.2-44.7,63.9-87.3,63.9-98c0-8.5-44.7-87.3-100.1-172.5c-85.2-127.8-119.3-161.9-202.4-198.1c-102.2-42.6-102.2-44.7-102.2-147c0-95.9,8.5-110.8,98-193.8c89.5-83.1,102.3-108.7,166.2-328c63.9-223.7,66-242.8,40.5-342.9c-19.2-72.4-23.4-168.3-14.9-304.6l14.9-198.1l161.9-117.2c242.8-174.6,257.7-170.4,513.3,157.6c168.3,217.3,225.8,274.8,330.2,334.4c115,66,129.9,70.3,191.7,44.7c57.5-25.6,83.1-21.3,247.1,38.3c270.5,98,594.3,381.3,521.9,455.8c-8.5,6.4-87.3,61.8-176.8,121.4c-155.5,102.2-164,112.9-236.4,276.9c-125.7,296.1-204.5,398.3-385.5,506.9c-142.7,83.1-1058.6,528.3-1088.5,526.1C7996.1-440.5,7964.1-466.1,7930.1-495.9z"/></g></g>
</svg>