<?xml version="1.0" encoding="utf-8"?>
<!-- Svg Vector Icons : http://www.onlinewebfonts.com/icon -->
<!DOCTYPE svg PUBLIC "-//W3C//DTD SVG 1.1//EN" "http://www.w3.org/Graphics/SVG/1.1/DTD/svg11.dtd">
<svg version="1.1" xmlns="http://www.w3.org/2000/svg" xmlns:xlink="http://www.w3.org/1999/xlink" x="0px" y="0px" viewBox="0 0 1000 1000" enable-background="new 0 0 1000 1000" xml:space="preserve">
<metadata> Svg Vector Icons : http://www.onlinewebfonts.com/icon </metadata>
<g><g transform="translate(0.000000,511.000000) scale(0.100000,-0.100000)"><path d="M7061,3286.7c-797.4-32-3206.5-72.5-5404.6-93.8l-1479.6-12.8l-40.5-106.6c-32-83.1-36.2-136.4-25.6-240.9c14.9-132.2,14.9-132.2,145-232.4c72.5-55.4,134.3-100.2,136.5-102.3c17.1-8.5-155.6-611.9-217.5-752.6c-40.5-98.1-74.6-185.5-74.6-196.1c0-19.2,170.6-315.5,234.5-405.1c21.3-29.8,61.8-172.7,93.8-319.8c29.8-147.1,113-422.1,183.4-611.9c72.5-198.3,145-441.3,168.4-573.5c38.4-198.3,57.6-247.3,149.2-394.4c102.3-159.9,108.7-179.1,140.7-417.9c23.5-172.7,57.6-311.3,108.7-443.4c68.2-179.1,74.6-213.2,85.3-501c10.7-285.7,17.1-326.2,89.5-528.7l78.9-219.6l117.3,10.7c64,6.4,447.7,17.1,852.8,23.4c2703.4,42.6,4818.3,127.9,5313,213.2c53.3,8.5,66.1-4.3,136.4-123.7c81-140.7,255.8-356.1,285.7-356.1c10.7,0,42.7,21.3,74.6,49c49,42.6,51.2,53.3,29.9,127.9c-40.5,149.2,59.7,302.8,247.3,368.8c57.6,21.3,63.9,32,70.4,127.9c8.5,198.3,40.5,268.6,153.5,349.6l106.6,74.6v170.6v172.7l-83.1,81c-140.7,138.6-147.1,172.7-66.1,424.3l72.5,219.6l330.4,91.7c279.3,74.6,347.5,102.3,443.5,172.7c87.4,68.2,117.3,104.5,134.3,177c14.9,49,68.2,198.3,119.4,330.5c136.4,343.3,151.4,420,106.6,550.1c-29.8,89.5-63.9,125.8-215.3,249.4c-119.4,95.9-185.5,164.2-194,202.5c-19.2,81-121.5,181.2-245.2,238.8c-100.2,49-104.5,53.3-104.5,140.7c0,66.1-19.2,117.3-68.2,191.9c-66.1,98.1-76.7,104.5-177,115.1c-72.5,6.4-153.5,38.4-245.2,91.7c-119.4,70.4-155.6,108.7-260.1,266.5c-117.2,179.1-123.7,194-145,385.9l-23.5,200.4l89.5,134.3l87.4,134.3l-198.3,287.8l-198.3,290l-106.6-2.1C7813.6,3314.4,7449,3299.5,7061,3286.7z"/></g></g>
</svg>