<?xml version="1.0" encoding="utf-8"?>
<!-- Svg Vector Icons : http://www.onlinewebfonts.com/icon -->
<!DOCTYPE svg PUBLIC "-//W3C//DTD SVG 1.1//EN" "http://www.w3.org/Graphics/SVG/1.1/DTD/svg11.dtd">
<svg version="1.1" xmlns="http://www.w3.org/2000/svg" xmlns:xlink="http://www.w3.org/1999/xlink" x="0px" y="0px" viewBox="0 0 1000 1000" enable-background="new 0 0 1000 1000" xml:space="preserve">
<metadata> Svg Vector Icons : http://www.onlinewebfonts.com/icon </metadata>
<g><g transform="translate(0.000000,511.000000) scale(0.100000,-0.100000)"><path d="M3941.2,4996.8c-4.3-10.7-14.9-55.4-23.4-102.3c-8.5-46.9-68.2-272.7-130-500.7c-63.9-228-172.6-684-242.9-1012.1c-70.3-328.1-174.7-811.8-234.4-1076.1c-130-592.4-161.9-954.6-98-1176.2c34.1-115.1,53.3-147,142.8-215.2c149.2-119.3,140.6-236.5-40.5-441.1c-63.9-72.5-164.1-206.7-223.7-296.2C3029.2,87.4,2969.6,6.4,2954.7-6.3c-12.8-10.7-32-59.6-40.5-106.5c-14.9-93.7-83.1-181.1-140.6-181.1c-19.2,0-100.1-76.7-176.9-170.5c-104.4-123.6-140.6-185.4-140.6-232.2c0-34.1-10.7-89.5-21.3-121.5c-29.8-76.7,4.3-115.1,104.4-115.1c68.2,0,85.2-10.7,112.9-68.2c29.8-66,27.7-76.7-46.9-251.5c-44.8-100.1-95.9-238.6-117.2-309c-49-168.3-522.1-2075.4-528.4-2128.7c-4.3-32,19.2-46.9,112.9-68.2c159.8-38.4,1201.8-245,1811.2-360.1c274.9-51.2,784.1-153.4,1129.3-223.7c990.8-204.5,2301.3-447.5,2414.2-447.5c57.5,0,100.2,10.7,100.2,23.4c0,12.8,66.1,398.5,149.2,856.6c81,460.2,196,1146.4,255.7,1525.7l108.7,690.4l-66.1,81c-36.2,46.9-78.8,121.5-95.9,168.3c-17.1,49-36.2,95.9-42.6,108.7c-23.4,34.1-140.6-51.1-183.2-134.2c-36.2-72.5-49-81-123.6-81c-46.9,0-127.9,19.2-183.2,42.6c-108.7,46.9-272.8,55.4-396.3,21.3c-63.9-17-93.8-14.9-170.5,21.3c-125.7,55.4-211,53.3-304.7-10.7c-76.7-51.1-166.2-55.4-193.9-10.7c-29.8,49-46.9,223.7-27.7,296.2c19.2,76.7,14.9,89.5-59.7,191.8c-44.8,57.5-121.5,136.4-170.5,172.6c-51.1,36.3-95.9,81-102.3,102.3c-36.2,121.4-161.9,828.9-161.9,907.7c0,55.4-4.3,98-10.7,98c-6.4,0-72.5-49-147-106.5c-168.3-132.1-221.6-136.4-323.9-25.6c-87.4,91.6-115,151.3-115,245c0,38.4,91.6,287.7,202.4,556.1c174.7,426.2,198.2,496.5,185.4,562.5c-14.9,68.2-27.7,81-110.8,106.5c-83.1,25.6-108.7,51.2-204.6,193.9c-59.7,89.5-164.1,285.5-232.3,436.8c-117.2,257.8-130,274.9-215.2,317.5c-78.8,38.4-100.1,63.9-149.2,179c-55.4,130-57.5,140.6-32,279.1l27.7,142.8l-85.2,219.5l-85.2,219.5l115.1,590.2c63.9,323.9,115.1,609.4,115.1,632.9c0,40.5-34.1,51.1-347.3,112.9C3968.9,5018.1,3954,5020.2,3941.2,4996.8z"/></g></g>
</svg>