<?xml version="1.0" encoding="utf-8"?>
<!-- Svg Vector Icons : http://www.onlinewebfonts.com/icon -->
<!DOCTYPE svg PUBLIC "-//W3C//DTD SVG 1.1//EN" "http://www.w3.org/Graphics/SVG/1.1/DTD/svg11.dtd">
<svg version="1.1" xmlns="http://www.w3.org/2000/svg" xmlns:xlink="http://www.w3.org/1999/xlink" x="0px" y="0px" viewBox="0 0 1000 1000" enable-background="new 0 0 1000 1000" xml:space="preserve">
<metadata> Svg Vector Icons : http://www.onlinewebfonts.com/icon </metadata>
<g><g transform="translate(0.000000,511.000000) scale(0.100000,-0.100000)"><path d="M6420.4,4965.3c-146.9-21.3-783.3-72.4-1415.5-112.8c-991.9-66-1194.1-72.4-1479.4-57.5c-180.9,10.6-332.1,17-334.2,14.9c-4.2-2.1,2.1-46.8,10.6-97.9c14.9-83,23.4-95.8,89.4-112.8c100-25.6,166-91.5,183.1-178.8c10.6-55.3,53.2-108.5,176.7-219.2c200.1-180.9,225.6-246.9,180.9-457.6c-17-76.6-61.7-202.2-100-281c-40.4-80.9-85.1-189.4-100-244.8c-46.8-178.8-176.7-253.3-668.4-383.1l-104.3-27.7l-51.1-149c-57.5-174.5-46.8-229.9,74.5-329.9l74.5-59.6l-10.6-166c-10.6-157.5-14.9-170.3-85.1-229.9c-91.5-83-123.5-155.4-123.5-291.6c0-80.9-8.5-108.6-36.2-117.1c-97.9-31.9-149-55.3-198-93.7c-46.8-34.1-51.1-53.2-49-174.6c4.3-127.7,2.1-136.2-57.5-176.7c-42.6-27.7-78.8-83-106.4-157.5c-59.6-153.3-42.6-287.4,78.8-683.3l95.8-308.6l289.5-298c215-219.2,349.1-336.3,510.9-444.9l219.3-146.9l-14.9-172.4c-10.6-153.2-8.5-178.8,29.8-227.7c42.6-51.1,59.6-55.4,293.8-70.3c202.2-12.8,268.2-25.5,351.2-68.1c70.2-34.1,104.3-66,104.3-93.7c0-87.3-51.1-276.7-138.4-502.3c-51.1-129.9-102.2-289.5-117.1-355.5l-23.4-119.2l87.3-151.1c70.2-121.3,132-187.3,327.8-351.2c263.9-221.4,285.2-232,472.5-255.4c70.2-6.4,138.4-21.3,149-27.7c12.8-8.5,57.5-100,102.2-206.5c42.6-104.3,114.9-249.1,159.6-319.3l78.8-127.7l-36.2-117.1c-34.1-110.7-34.1-121.3,4.3-217.1c72.4-185.2,102.2-240.5,163.9-312.9l61.7-74.5l83,31.9c68.1,25.6,85.1,46.8,106.4,115c27.7,104.3,129.8,183,315,244.8l132,42.6l227.8-85.1c125.6-46.8,242.7-85.1,259.7-85.1c55.3,0,57.5,44.7,10.7,189.5c-36.2,108.5-44.7,168.1-34.1,238.4c12.8,80.9,27.7,102.2,114.9,159.6c55.4,34.1,155.4,87.3,223.5,112.8c66,27.7,121.3,55.3,121.3,61.7c0,6.4-21.3,66-44.7,134.1l-44.7,123.5l53.2,63.9c89.4,106.4,117.1,238.4,127.7,602.4l10.6,332.1l104.3,136.2c55.3,74.5,129.8,195.8,163.9,272.5c34.1,76.6,108.5,208.6,166,293.7l104.3,155.4l-14.9,206.5c-12.8,187.3-21.3,219.2-95.8,349.1C7535.8-933,7529.4-850,7574.1-469c19.2,180.9,19.2,268.2-10.6,532.1c-19.2,174.6-51.1,547.1-68.1,828c-19.2,281-57.5,783.3-85.1,1117.5c-29.8,334.2-72.4,849.3-95.8,1143c-42.6,525.8-44.7,542.8-136.3,815.2c-72.4,210.7-112.8,298-170.3,361.9c-125.6,138.4-157.5,225.6-174.5,466.2l-14.9,215l-66-2.1C6716.3,5005.7,6567.3,4986.6,6420.4,4965.3z"/></g></g>
</svg>