<?xml version="1.0" encoding="utf-8"?>
<!-- Svg Vector Icons : http://www.onlinewebfonts.com/icon -->
<!DOCTYPE svg PUBLIC "-//W3C//DTD SVG 1.1//EN" "http://www.w3.org/Graphics/SVG/1.1/DTD/svg11.dtd">
<svg version="1.1" xmlns="http://www.w3.org/2000/svg" xmlns:xlink="http://www.w3.org/1999/xlink" x="0px" y="0px" viewBox="0 0 1000 1000" enable-background="new 0 0 1000 1000" xml:space="preserve">
<metadata> Svg Vector Icons : http://www.onlinewebfonts.com/icon </metadata>
<g><g transform="translate(0.000000,511.000000) scale(0.100000,-0.100000)"><path d="M6652.7,4989.3C5570.1,4870,4108.2,4727.2,3829,4714.4l-351.6-17l-149.2-85.2c-81-49-202.4-134.3-268.5-193.9c-153.4-136.4-208.8-151.3-313.3-81c-70.3,44.8-385.7,153.4-400.6,136.4c-4.3-2.1,44.8-624.4,108.7-1378.8c127.9-1523.7,277-3388.4,304.7-3782.6c12.8-208.8,10.7-302.6-23.4-511.4c-29.8-185.4-36.2-313.3-27.7-466.7c10.7-208.9,12.8-215.2,108.7-360.1l98-147.1l27.7-317.5l25.6-319.6l-140.7-228c-76.7-125.7-181.1-319.7-232.3-430.5c-51.1-110.8-149.2-274.9-217.4-364.4l-125.7-164.1l-32-292c-34.1-302.6-40.5-500.8-19.2-500.8c6.4,0,74.6,34.1,151.3,76.7c153.4,87.4,453.9,151.3,965.4,208.9l266.4,32l95.9-91.6c100.2-95.9,189.7-162,217.4-162c10.7,0,53.3,72.5,95.9,159.8l78.8,157.7l162,66.1c87.4,34.1,172.6,63.9,187.5,63.9c51.2,0,238.7-138.5,262.1-196.1c25.6-61.8,42.6-68.2,112.9-40.5c34.1,12.8,40.5,40.5,42.6,181.1l2.1,166.2l266.4,147l266.4,144.9l85.2-85.2l87.4-83.1H5732h185.4l32,78.8c27.7,61.8,29.8,106.6,14.9,208.8l-21.3,127.9l153.4,217.4c136.4,193.9,176.9,234.4,396.4,394.2l245.1,179l27.7,200.3c49,372.9,23.4,330.3,217.4,360.1c189.7,27.7,473.1,144.9,696.9,285.5c134.2,83.1,138.5,89.5,127.9,159.8c-8.5,38.4-42.6,117.2-76.7,172.6c-63.9,98-66.1,106.6-44.7,221.6c27.7,140.7,38.3,21.3-268.5,2678.7c-181.1,1568.4-392.1,3582.3-392.1,3740C7025.6,5017,6936.1,5019.2,6652.7,4989.3z"/></g></g>
</svg>