<?xml version="1.0" encoding="utf-8"?>
<!-- Svg Vector Icons : http://www.onlinewebfonts.com/icon -->
<!DOCTYPE svg PUBLIC "-//W3C//DTD SVG 1.1//EN" "http://www.w3.org/Graphics/SVG/1.1/DTD/svg11.dtd">
<svg version="1.1" xmlns="http://www.w3.org/2000/svg" xmlns:xlink="http://www.w3.org/1999/xlink" x="0px" y="0px" viewBox="0 0 1000 1000" enable-background="new 0 0 1000 1000" xml:space="preserve">
<metadata> Svg Vector Icons : http://www.onlinewebfonts.com/icon </metadata>
<g><g transform="translate(0.000000,511.000000) scale(0.100000,-0.100000)"><path d="M403.2,2704.2c-17.1-55.4-315.6-4900.6-302.8-4913.4c17.1-17.1,929.8-64,3373.7-177c1657-76.8,2051.5-89.6,3700-106.6c1015.1-10.7,2032.3-12.8,2262.6-8.5l418,12.8l12.8,503.3c42.6,1539.7,42.6,2177.3,4.3,2606l-38.4,415.8l-85.3,64c-96,70.4-268.7,279.4-388.1,464.9c-70.4,115.2-78.9,138.6-66.1,223.9c10.7,70.4,34.1,117.3,87.4,172.7c57.6,57.6,74.6,93.8,74.6,151.4c0,98.1-46.9,138.6-181.3,155.7c-91.7,10.7-121.6,29.9-223.9,130.1l-117.3,117.3l-1887.3,21.3c-1038.6,12.8-2318.1,36.3-2846.9,53.3c-2701.9,89.6-3448.3,117.3-3610.4,128C458.7,2727.7,409.6,2723.4,403.2,2704.2z"/></g></g>
</svg>