<?xml version="1.0" encoding="utf-8"?>
<!-- Svg Vector Icons : http://www.onlinewebfonts.com/icon -->
<!DOCTYPE svg PUBLIC "-//W3C//DTD SVG 1.1//EN" "http://www.w3.org/Graphics/SVG/1.1/DTD/svg11.dtd">
<svg version="1.1" xmlns="http://www.w3.org/2000/svg" xmlns:xlink="http://www.w3.org/1999/xlink" x="0px" y="0px" viewBox="0 0 1000 1000" enable-background="new 0 0 1000 1000" xml:space="preserve">
<metadata> Svg Vector Icons : http://www.onlinewebfonts.com/icon </metadata>
<g><g transform="translate(0.000000,511.000000) scale(0.100000,-0.100000)"><path d="M6285.6,2586.3c-41.1-15.1-140.4-30.2-218.2-30.2c-153.4-2.2-177.1-15.1-200.9-118.8c-13-49.7-4.3-73.5,41-121c30.2-32.4,60.5-92.9,67-134c13-69.1,6.5-79.9-90.8-149.1c-149.1-105.9-343.5-194.4-494.7-222.5l-129.6-25.9l-21.6-175l-21.6-175l-185.8-153.4c-101.5-84.3-233.3-213.9-296-289.5c-101.5-125.3-110.2-144.8-97.2-218.2c6.5-45.4,0-116.7-15.1-166.4l-28.1-84.3h-190.1c-177.2,0-190.1,2.2-229,56.2l-41,54l-155.6-88.6l-155.6-90.7V317.7V181.6l-71.3-13c-64.8-13-82.1-2.2-172.8,84.3c-56.2,54-118.8,97.2-140.4,97.2c-79.9-2.2-207.4-99.4-272.2-209.6c-36.7-60.5-73.5-118.8-82.1-125.3c-23.8-23.8-110.2,30.2-190.1,118.8l-75.6,82.1l-345.7-54C2184.9,116.8,2105,97.4,1999.1,39c-121-64.8-131.8-75.6-172.8-203.1c-25.9-73.5-64.8-146.9-86.4-162c-41-30.3-41-32.4,4.3-157.7c28.1-71.3,51.9-136.1,54-146.9c2.2-10.8-54-38.9-125.3-62.6c-198.8-62.7-233.3-77.8-289.5-125.3c-73.5-60.5-86.4-200.9-25.9-317.6c25.9-49.7,45.4-127.5,45.4-175c0-73.4-8.6-90.8-49.7-99.4c-49.7-13-300.3,67-453.7,144.8c-71.3,34.6-92.9,36.7-162,15.1c-164.2-54-313.3-200.9-313.3-309c0-12.9,25.9-64.8,58.3-112.3l56.2-88.6l-43.2-95.1c-23.8-51.8-43.2-140.4-43.2-196.6c0-92.9-6.5-105.9-69.1-138.3c-38.9-19.4-118.8-73.4-177.2-118.8L100-2393.7h267.9c146.9,0,423.5,15.1,613.6,32.4c190.1,17.3,488.3,32.4,665.4,32.4h317.6v92.9c0,49.7,6.5,127.5,13,172.8l15.1,79.9h190.1c105.9,0,533.6,38.9,952.8,86.4c419.1,47.5,1696,172.8,2836.8,280.9C7113-1510.1,8081-1417.2,8122-1408.5c41.1,6.5,196.6,82.1,345.7,168.5c149.1,86.4,315.4,183.6,373.8,216.1c92.9,54,101.5,64.8,101.5,140.4c0,62.7,15.1,95.1,67,144.8c36.7,34.6,149.1,177.2,248.5,317.6c101.5,138.3,192.3,252.8,200.9,252.8c23.8,0,410.5,365.1,434.3,410.5c17.3,34.6,4.3,49.7-101.5,110.2c-198.8,114.5-542.3,509.9-589.8,678.4c-21.6,75.6-41.1,97.2-118.8,136.1c-131.8,62.7-162,134-177.2,404l-12.9,224.7l-103.7,86.4c-56.2,47.5-125.3,99.4-155.5,112.4c-41.1,19.4-62.7,51.8-79.9,131.8c-43.2,175-112.4,168.5-345.7-34.6l-162.1-140.4l-54,51.9c-32.4,30.2-99.4,58.3-170.7,71.3c-108,19.5-125.3,17.3-205.2-34.6c-125.3-77.8-233.3-69.1-341.4,30.2c-79.9,71.3-86.4,73.5-267.9,73.5c-101.5,0-200.9,8.6-222.5,21.6c-21.6,10.8-64.8,90.8-97.2,177.2c-51.8,146.9-64.8,162-164.2,218.2C6402.2,2625.2,6391.4,2627.3,6285.6,2586.3z"/></g></g>
</svg>