<?xml version="1.0" encoding="utf-8"?>
<!-- Svg Vector Icons : http://www.onlinewebfonts.com/icon -->
<!DOCTYPE svg PUBLIC "-//W3C//DTD SVG 1.1//EN" "http://www.w3.org/Graphics/SVG/1.1/DTD/svg11.dtd">
<svg version="1.1" xmlns="http://www.w3.org/2000/svg" xmlns:xlink="http://www.w3.org/1999/xlink" x="0px" y="0px" viewBox="0 0 1000 1000" enable-background="new 0 0 1000 1000" xml:space="preserve">
<metadata> Svg Vector Icons : http://www.onlinewebfonts.com/icon </metadata>
<g><g transform="translate(0.000000,511.000000) scale(0.100000,-0.100000)"><path d="M3274.3,4380.4c-724.3-36.2-1210.1-49-2060.1-49L100,4329.3v-536.9c0-571,42.6-1250.6,98-1551c27.7-153.4,51.1-213,157.7-387.7c117.2-191.7,127.8-223.7,170.4-455.9l46.9-251.4l221.6-281.2L1016.1,584V445.5c0-102.3,10.6-149.1,40.5-187.5c40.5-51.1,40.5-61.8,4.3-477.2l-36.2-426.1L879.7-886c-83.1-138.5-136.3-251.4-127.8-266.3c8.5-12.8,42.6-61.8,76.7-104.4l61.8-78.8l-32-123.6c-19.2-68.2-49-285.5-68.2-485.7c-27.7-323.8-40.5-381.4-104.4-534.7c-70.3-164-72.4-183.2-59.6-343L639-2993l225.8,72.4c210.9,68.2,251.4,74.6,630.6,91.6l404.8,17l517.7-178.9c415.4-142.8,581.6-189.6,841.5-234.4l323.8-55.4l181.1,72.4l181.1,72.4l266.3-89.5C4593.1-3353,4591-3353,4616.5-3287c57.5,149.1,57.5,147-108.7,208.8c-142.7,53.3-161.9,55.4-285.5,32l-132.1-23.4l-132.1,78.8c-70.3,44.7-130,93.7-130,110.8c0,76.7,44.7,110.8,210.9,157.7l170.4,46.9l85.2-66.1l85.2-68.2l89.5,44.7c83.1,42.6,98,44.7,230.1,21.3c76.7-14.9,155.5-34.1,172.6-44.7c49-23.4,170.4-270.6,170.4-347.3c0-36.2,8.5-76.7,17-89.5c8.5-12.8,110.8-29.8,228-38.4l213-14.9l91.6-91.6l93.8-91.6l-42.6-83.1c-23.5-46.9-68.2-98-98-115c-29.8-14.9-55.4-34.1-55.4-42.6c0-6.4,36.2-46.9,81-89.5c57.5-55.4,189.6-121.4,494.3-249.3l415.4-174.7l170.4,63.9c179,66,181.1,66,242.9,217.3c38.3,91.6,44.7,98,164,123.6c83.1,19.2,155.5,53.3,215.2,102.3l89.5,74.6l66-46.9c34.1-25.6,63.9-46.9,63.9-49c0-2.1,19.2-68.2,40.5-147l40.5-142.7l-104.4-36.2c-108.7-40.5-121.4-53.3-76.7-89.5c17-14.9,74.6-2.1,191.7,44.7c164,63.9,170.4,70.3,274.8,225.8c59.6,89.5,127.8,178.9,153.4,198.1c44.7,36.2,44.7,38.3-29.8,38.3c-117.2,2.1-138.5,23.4-98,102.3c19.2,36.2,34.1,104.4,34.1,149.1c0,83.1,2.1,85.2,91.6,98c57.5,10.6,112.9,38.3,157.7,80.9c68.2,66,70.3,66,100.1,27.7c17-23.4,34.1-100.1,38.3-174.7c4.3-72.4,14.9-138.5,23.4-147c6.4-8.5,106.5-27.7,221.6-44.8c264.2-38.3,615.7-193.8,679.6-302.5c38.4-63.9,44.8-66,181.1-66c121.4,0,153.4-8.5,206.7-53.3l63.9-53.3l108.7,147c83.1,112.9,108.6,164,108.6,223.7c0,68.2-6.4,76.7-55.4,76.7c-36.2,0-110.8,42.6-208.8,121.4c-83.1,66-161.9,127.8-174.7,136.3c-12.8,10.6-153.4,38.4-315.3,61.8c-289.7,42.6-291.9,42.6-445.3,151.3c-85.2,59.7-151.3,119.3-147,132.1c2.1,14.9,25.6,76.7,51.1,140.6l44.7,112.9L8756-2731c151.3-21.3,170.4,21.3,44.7,100.1c-53.3,32-89.5,68.2-83.1,78.8c6.4,12.8,83.1,21.3,170.4,21.3h155.5l87.4,151.3l87.3,151.3l-63.9,91.6c-34.1,49-68.2,132.1-74.6,183.2c-27.7,193.9-27.7,193.9-102.3,179c-110.8-21.3-257.8-193.9-296.1-345.1c-17-68.2-40.5-121.4-51.1-121.4c-10.7,2.1-81,14.9-153.4,29.8c-130,27.7-138.5,32-181.1,123.6l-46.9,93.8l187.5,178.9l187.5,179l-119.3,296.1c-63.9,164-117.2,304.6-117.2,313.2c0,6.4-76.7,98-170.4,202.4l-172.6,187.5l44.7,313.2c23.4,174.7,42.6,347.3,42.6,387.7c0,72.4,0,72.4-78.8,57.5C7607.7,38.6,6508.3-12.5,5123.6-16.8h-438.9l-34.1,112.9c-29.8,102.3-29.8,142.7,12.8,534.7l44.7,421.8l185.4,334.5c102.3,183.2,289.7,509.2,415.4,726.5l228,394.1l-25.6,115c-27.7,121.4-23.4,132.1,78.8,191.7c14.9,6.4,34.1,57.5,40.5,110.8c12.8,93.7,10.6,98-91.6,191.7c-95.9,85.2-108.6,106.5-117.2,200.3c-6.4,59.6-51.1,200.3-98,313.2c-76.7,176.8-91.6,238.6-110.8,447.4c-10.7,132.1-21.3,266.3-21.3,300.4v57.5l-483.6-2.1C4439.7,4431.6,3796.3,4408.1,3274.3,4380.4z"/></g></g>
</svg>