<?xml version="1.0" encoding="utf-8"?>
<!-- Svg Vector Icons : http://www.onlinewebfonts.com/icon -->
<!DOCTYPE svg PUBLIC "-//W3C//DTD SVG 1.1//EN" "http://www.w3.org/Graphics/SVG/1.1/DTD/svg11.dtd">
<svg version="1.1" xmlns="http://www.w3.org/2000/svg" xmlns:xlink="http://www.w3.org/1999/xlink" x="0px" y="0px" viewBox="0 0 1000 1000" enable-background="new 0 0 1000 1000" xml:space="preserve">
<metadata> Svg Vector Icons : http://www.onlinewebfonts.com/icon </metadata>
<g><g transform="translate(0.000000,511.000000) scale(0.100000,-0.100000)"><path d="M5871.5,2580.4l-287.8-130l-170.5-260l-170.5-257.9l-170.5-49c-93.8-25.6-788.6-196.1-1545.3-379.4c-1313-315.5-1931.1-447.6-2896.7-616c-240.9-42.6-439.1-78.9-439.1-81c-2.1-2.1-27.7-379.4-53.3-837.7C93-798,90.9-896.1,116.5-1254.2c17-243,36.2-390.1,51.2-396.5c14.9-6.4,797.2,159.9,1739.3,364.5c944.2,206.8,1903.4,413.5,2131.5,460.4c228.1,46.9,648,153.5,933.6,234.5c586.1,170.5,496.6,172.7,726.8-23.4c157.7-134.3,643.7-767.3,844.1-1097.7c91.7-151.3,189.7-313.3,217.4-358.1l49-78.9l155.6,76.7c83.1,42.6,157.7,81,162,85.3c4.2,4.3-8.5,85.3-29.8,183.3l-36.2,172.6l59.7,117.2c59.7,108.7,72.5,119.4,294.2,230.2c125.7,66.1,232.3,115.1,236.6,110.8c4.3-4.3,34.1-113,70.3-243l63.9-238.7l-36.2-134.3c-40.5-145-49-155.6-330.4-321.9c-87.4-53.3-98-66.1-98-134.3v-76.7l98,70.4c170.5,121.5,238.7,189.7,537.1,539.3l292,341l294.1,149.2c166.3,87.4,434.8,200.4,628.8,264.3c183.3,63.9,343.2,121.5,351.7,130c32,27.7-27.7,364.5-106.6,607.5c-68.2,213.2-91.7,253.7-236.6,434.8c-140.7,176.9-174.8,206.8-300.5,262.2c-132.1,61.8-151.3,63.9-311.2,51.2c-106.6-8.5-183.3-27.7-206.8-49c-34.1-32-34.1-38.4,32-127.9c36.2-53.3,74.6-100.2,83.1-104.4c8.5-6.4,66.1,19.2,125.8,53.3l110.8,61.8L8879,233.6c168.4-130,168.4-130,219.6-302.7c89.5-296.3,93.8-264.3-55.4-411.4c-106.6-104.4-174.8-149.2-324-215.3l-189.7-81l-194,27.7c-106.6,14.9-234.5,32-283.5,38.4l-89.5,12.8l-309.1,479.6c-179,275-385.8,562.7-486,680l-176.9,202.5h-151.3c-132.2,0-159.9-6.4-234.5-63.9l-87.4-61.8l-136.4,183.3c-74.6,100.2-145,196.1-153.5,213.1c-34.1,55.4,32,249.4,221.7,654.4c104.4,221.7,189.7,411.4,189.7,419.9c0,27.7-445.5,701.3-462.5,701.3C6165.6,2710.4,6029.2,2650.7,5871.5,2580.4z"/><path d="M9578.1-1855.2c0-4.3-17.1-63.9-36.2-134.3l-36.2-125.8l-174.8-55.4c-117.2-36.2-187.6-70.3-211-102.3l-32-46.9l304.8,12.8c264.3,10.7,507.3,51.2,507.3,85.3c0,6.4-36.2,91.7-78.9,191.8l-76.7,179h-83.1C9616.5-1851,9580.3-1853.1,9578.1-1855.2z"/><path d="M7843.1-2143l-181.2-208.9l78.9-68.2c44.8-38.4,89.5-68.2,100.2-70.3c10.7,0,130,51.2,266.4,112.9c136.4,63.9,292,132.2,347.4,155.6c57.6,21.3,102.3,46.9,102.3,55.4c0,6.4-61.8,61.8-136.4,121.5c-130,104.4-142.8,108.7-264.3,108.7h-130L7843.1-2143z"/></g></g>
</svg>