<?xml version="1.0" encoding="utf-8"?>
<!-- Svg Vector Icons : http://www.onlinewebfonts.com/icon -->
<!DOCTYPE svg PUBLIC "-//W3C//DTD SVG 1.1//EN" "http://www.w3.org/Graphics/SVG/1.1/DTD/svg11.dtd">
<svg version="1.1" xmlns="http://www.w3.org/2000/svg" xmlns:xlink="http://www.w3.org/1999/xlink" x="0px" y="0px" viewBox="0 0 1000 1000" enable-background="new 0 0 1000 1000" xml:space="preserve">
<metadata> Svg Vector Icons : http://www.onlinewebfonts.com/icon </metadata>
<g><g transform="translate(0.000000,511.000000) scale(0.100000,-0.100000)"><path d="M7106.9,2531.6c-204.7-44.8-895.5-181.2-1535.1-304.9C4166.8,1958.1,118,1141.5,100.9,1122.3c-6.4-6.4,21.3-164.2,61.8-349.7c40.5-185.5,95.9-466.9,123.7-624.7C312-9.8,339.7-148.4,348.2-156.9c10.7-12.8,501,524.5,567.1,620.4c2.1,4.3,74.6,25.6,159.9,46.9c179.1,46.9,258,113,428.5,362.5c59.7,87.4,113,164.2,117.3,168.4c2.1,4.3,42.6-8.5,89.5-29.8c68.2-29.8,113-34.1,255.8-21.3c172.7,14.9,174.8,14.9,339,147.1c292.1,236.7,400.8,307,516,341.1l115.1,34.1l110.9-72.5c59.7-40.5,189.8-113,287.8-162c181.2-91.7,349.7-230.3,490.4-405.1c68.2-83.1,110.9-108.7,309.2-189.8c127.9-51.2,243.1-102.3,258-113c14.9-12.8,27.7-89.5,32-194l6.4-172.7l330.5-76.8c181.2-42.7,360.3-93.8,398.7-113l68.2-36.3l89.6,127.9c51.2,72.5,100.2,119.4,113,110.9c42.6-25.6,300.6-202.6,319.8-219.6c8.5-8.5-17.1-76.8-59.7-153.5c-59.7-106.6-89.6-200.4-130.1-398.7c-46.9-238.8-57.5-268.6-157.8-415.8c-104.5-149.2-108.7-162-108.7-296.3c0-121.5,40.5-287.8,83.2-336.9c6.4-8.5,142.9-51.2,300.6-93.8c268.7-72.5,304.9-78.9,558.6-74.6c247.3,4.3,287.8,0,479.7-59.7c115.1-36.3,264.3-72.5,334.7-83.2l123.7-19.2l59.7,127.9l59.7,130.1l-93.8,138.6c-81,119.4-93.8,155.6-93.8,247.3c0,106.6-2.1,108.8-147.1,232.4l-145,123.7l-130,345.4l-130.1,343.3L6629.3,52c55.5,217.5,74.6,341.1,72.5,458.4c0,153.5-4.2,162-81,240.9c-55.5,57.6-72.5,87.4-57.6,106.6c91.7,121.5,159.9,245.2,159.9,287.8c0,142.9,44.8,215.3,211.1,334.7c89.5,64,198.3,145,240.9,181.2l78.9,66.1l29.9-59.7c32-57.6,29.9-61.8-57.6-155.6c-70.3-76.8-106.6-142.9-170.6-330.5c-102.3-296.4-93.8-349.7,59.7-388c57.5-14.9,106.6-29.8,110.9-34.1c4.3-4.3,17.1-106.6,29.9-230.3c10.7-121.5,25.6-270.8,32-330.5l10.7-106.6l-130-61.8l-130-64l14.9-213.2c8.5-117.3,17.1-215.3,21.3-219.6c19.2-21.3,72.5,34.1,123.7,123.7c34.1,59.7,66.1,106.6,74.6,106.6c10.7,0,59.7-44.8,110.8-98.1c83.2-83.2,91.7-100.2,61.8-121.5c-177-134.3-166.3-117.3-189.8-343.3l-21.3-211.1l149.2-200.4c83.2-110.8,172.7-208.9,198.3-219.6c25.6-10.7,140.7-29.8,253.7-42.6c191.9-23.4,211-21.3,292.1,19.2c46.9,25.6,93.8,44.8,102.4,44.8c10.7,0,106.6-113,213.2-251.6c153.5-200.4,213.2-260.1,279.3-285.7l85.3-34.1l409.3,172.7l409.4,170.6l125.8,253.7l125.8,251.6l15,298.5c6.4,164.2,8.5,298.5,4.2,298.5s-166.3-34.1-360.3-76.7c-324.1-70.4-381.7-76.8-733.4-78.9l-381.6-4.3l-102.4,394.4C8262.5-82.3,8153.7,382.5,8077,736.4c-125.8,573.5-153.5,678-279.3,991.4c-78.9,191.9-174.8,464.8-215.3,605.5c-40.5,140.7-81,262.2-87.4,268.6C7486.4,2610.5,7311.6,2578.5,7106.9,2531.6z"/><path d="M5350.1,52l-59.7-95.9l55.4-44.8c32-25.6,89.6-93.8,130-151.4l70.4-106.6l57.5,108.7c108.7,215.3,110.9,200.4-40.5,298.5c-72.5,49-136.4,87.4-142.9,87.4C5416.2,148,5384.2,105.3,5350.1,52z"/><path d="M7923.5-1623.8c-38.4-10.7-70.4-23.5-70.4-27.7c0-4.3,29.9-72.5,66.1-151.4c34.2-78.9,70.4-191.9,76.8-253.7c12.8-117.3,123.6-339,162-326.2c12.8,4.3,42.6,32,64,61.8c42.6,55.4,42.6,57.6-4.3,245.2c-25.6,102.3-66.1,251.6-91.7,332.6C8079.1-1587.5,8068.5-1581.2,7923.5-1623.8z"/></g></g>
</svg>