<?xml version="1.0" encoding="utf-8"?>
<!-- Svg Vector Icons : http://www.onlinewebfonts.com/icon -->
<!DOCTYPE svg PUBLIC "-//W3C//DTD SVG 1.1//EN" "http://www.w3.org/Graphics/SVG/1.1/DTD/svg11.dtd">
<svg version="1.1" xmlns="http://www.w3.org/2000/svg" xmlns:xlink="http://www.w3.org/1999/xlink" x="0px" y="0px" viewBox="0 0 1000 1000" enable-background="new 0 0 1000 1000" xml:space="preserve">
<metadata> Svg Vector Icons : http://www.onlinewebfonts.com/icon </metadata>
<g><g transform="translate(0.000000,511.000000) scale(0.100000,-0.100000)"><path d="M4481.8,4933.2c-38.4-42.6-162-142.8-268.6-223.9c-151.4-113-198.3-159.9-198.3-198.3c0-25.6-19.2-66.1-40.5-85.3c-38.4-34.1-53.3-36.3-174.8-8.5c-125.8,25.6-136.4,34.1-196.1,132.2c-36.3,55.4-70.4,132.2-76.7,170.6c-12.8,64-19.2,66.1-132.2,72.5l-115.1,6.4l-113-230.2c-61.8-125.8-170.6-411.5-240.9-635.3c-72.5-221.7-172.7-515.9-221.7-650.2l-91.7-245.2l14.9-309.1c12.8-264.4,10.7-328.3-21.3-445.6c-21.3-74.6-59.7-157.8-83.1-183.3c-38.4-40.5-42.6-72.5-42.6-330.4v-285.7l98.1-123.7l98.1-125.8l-70.4-196.1c-38.4-108.7-125.8-298.5-196.1-424.3c-119.4-215.3-127.9-245.2-166.3-490.3c-21.3-145-40.5-324.1-40.5-398.7v-134.3l-57.6,17c-64,17.1-196.1,19.2-213.2,0c-6.4-4.2,202.5-699.2,462.6-1541.4c650.2-2093.5,660.9-2129.7,660.9-2223.6c0-78.9,42.6-149.2,89.5-149.2c10.7,0,85.3-19.2,166.3-44.8l145-42.6l14.9-119.4c8.5-66.1,19.2-132.2,25.6-149.2c12.8-34.1,217.4-142.8,234.5-125.8c25.6,25.6,110.8,565,125.8,790.9c14.9,247.3,14.9,247.3,83.1,300.6l70.4,53.3l-49,159.9l-49,159.9l140.7,168.4c78.9,91.7,149.2,168.4,157.8,168.4c8.5,2.1,49-27.7,91.7-64c89.5-81,68.2-87.4,445.6,125.8c266.5,151.4,289.9,176.9,289.9,319.8c0,42.6,8.5,89.5,17.1,102.3c8.5,12.8,72.5,32,142.8,42.6c125.8,19.2,130,21.3,211,145l85.3,125.8l-23.4,236.7c-23.4,221.7-21.3,238.8,19.2,294.2c49,70.4,38.4,121.5-53.3,236.6c-34.1,44.8-59.7,83.2-55.4,85.3c4.3,4.3,49,32,98.1,64l89.5,55.4l40.5-68.2c23.4-38.4,61.8-108.8,89.5-157.8c44.8-81,53.3-87.4,119.4-76.7c78.9,12.8,87.4-4.3,98.1-174.8l6.4-85.3l98.1-6.4l98.1-6.4l14.9,108.7c8.5,59.7,25.6,132.2,38.4,162c21.3,46.9,17.1,59.7-44.8,123.7l-70.4,72.5l38.4,66.1c21.3,38.4,98.1,104.5,170.5,149.2c72.5,44.8,149.2,113,170.6,149.2c34.1,57.5,51.2,66.1,130,66.1c68.2,0,91.7-8.5,91.7-32c0-19.2,14.9-61.8,32-95.9c27.7-53.3,44.8-64,113-61.8c74.6,0,91.7,14.9,281.4,234.5c289.9,336.9,562.8,586.3,684.3,626.8c98.1,34.1,100.2,36.2,198.3,253.7c134.3,300.6,134.3,383.7,0,607.6c-55.4,89.5-140.7,213.2-194,275l-95.9,110.9H7541c-138.6,0-159.9-14.9-117.3-83.1c25.6-40.5,6.4-87.4-36.3-87.4c-17.1,0-98.1,49-174.8,108.7l-145,108.7l-14.9,258c-10.7,189.7-25.6,281.4-55.4,339l-40.5,78.9l-289.9,6.4l-290,6.4l-441.3,1458.2l-441.3,1458.2l-74.6,38.4c-176.9,89.5-729.1,296.3-793,296.3C4573.4,5010,4537.2,4990.8,4481.8,4933.2z"/><path d="M6468.7-1104.3c-42.6-21.3-100.2-78.9-136.4-138.6l-64-104.5l98.1-95.9c76.8-78.9,106.6-95.9,149.2-83.1c42.6,10.7,53.3,29.8,66.1,113c6.4,55.4,32,121.5,57.5,147.1c40.5,44.8,40.5,46.9,6.4,123.7C6603-1057.4,6573.1-1048.9,6468.7-1104.3z"/><path d="M5692.7-1850.4l-76.8-78.9l85.3-132.2l87.4-132.2l85.3,42.6c59.7,29.9,81,53.3,72.5,76.8c-6.4,17.1-19.2,68.2-25.6,115.1c-10.7,57.6-34.1,98.1-83.1,134.3l-68.2,53.3L5692.7-1850.4z"/></g></g>
</svg>