<?xml version="1.0" encoding="utf-8"?>
<!-- Svg Vector Icons : http://www.onlinewebfonts.com/icon -->
<!DOCTYPE svg PUBLIC "-//W3C//DTD SVG 1.1//EN" "http://www.w3.org/Graphics/SVG/1.1/DTD/svg11.dtd">
<svg version="1.1" xmlns="http://www.w3.org/2000/svg" xmlns:xlink="http://www.w3.org/1999/xlink" x="0px" y="0px" viewBox="0 0 1000 1000" enable-background="new 0 0 1000 1000" xml:space="preserve">
<metadata> Svg Vector Icons : http://www.onlinewebfonts.com/icon </metadata>
<g><g transform="translate(0.000000,511.000000) scale(0.100000,-0.100000)"><path d="M2048,4988.2c-29.8-10.6-140.6-78.8-244.9-155.5c-106.5-76.7-225.8-149.1-266.2-164c-59.6-19.2-191.7-142.7-191.7-178.9c0-6.4,25.6-25.6,55.4-44.7c51.1-36.2,57.5-34.1,238.5,61.8c136.3,74.5,234.3,149.1,370.6,283.3C2220.5,4998.9,2229,5043.6,2048,4988.2z"/><path d="M2765.8,3982.9c-208.7-27.7-423.8-151.2-594.2-340.8c-72.4-78.8-155.5-155.5-185.3-168.3c-63.9-25.6-193.8-213-193.8-276.9c0-32-42.6-63.9-164-125.7c-91.6-44.7-202.3-112.9-247.1-147c-59.6-49-117.1-70.3-234.3-89.5c-279-42.6-300.3-49-313.1-106.5c-14.9-63.9-200.2-191.7-351.4-242.8c-174.7-57.5-172.5-51.1-29.8-249.2c72.4-98,132-181,134.2-183.2c2.1-4.3,134.2-25.6,291.8-46.9c272.6-40.5,839.2-178.9,998.9-242.8c40.5-17,262-72.4,489.9-121.4c413.2-91.6,415.3-91.6,511.2-183.2c55.4-53.2,144.8-108.6,213-134.2l119.3-44.7l66-366.3c61.8-334.4,72.4-370.6,127.8-415.3C3532.5,392,3524,385.6,3649.6,668.8c63.9,142.7,127.8,317.4,144.8,387.6c29.8,138.4,151.2,421.7,191.7,447.3c14.9,8.5,46.9-10.6,83.1-53.2l57.5-68.2l174.6,91.6l174.7,93.7l51.1-63.9c51.1-61.8,53.2-63.9,110.8-27.7c40.5,23.4,72.4,72.4,102.2,151.2c40.5,115,42.6,119.3,159.7,149.1c66,19.2,210.9,40.5,323.7,46.9c112.9,8.5,215.1,21.3,225.8,29.8c10.6,6.4,44.7,46.9,76.7,89.5c55.4,74.5,61.8,76.7,234.3,89.4c144.8,12.8,219.4,4.3,436.6-42.6l259.9-57.5l112.9,49c176.8,80.9,562.3,115,734.8,66c153.3-40.5,157.6,27.7,6.4,106.5c-42.6,21.3-119.3,83.1-172.5,138.4l-95.8,98l-2.1,247.1c-2.1,238.5-4.3,249.2-51.1,266.2c-38.3,12.8-59.6,8.5-95.8-25.6c-29.8-27.7-155.5-72.4-330.1-119.3l-285.4-74.6l-117.1,38.3l-119.3,38.3l-6.4,210.9l-6.4,208.7l-68.1-10.7c-38.4-4.3-178.9-59.6-313.1-119.3c-236.4-104.4-251.3-108.6-436.6-108.6c-300.3,0-449.4-53.2-660.3-234.3c-93.7-80.9-193.8-155.5-223.6-166.1c-191.7-68.2-208.7-70.3-281.2-38.3c-38.3,19.2-87.3,44.7-106.5,59.6c-29.8,21.3-49,19.2-100.1-10.6c-40.5-23.4-106.5-36.2-187.4-36.2c-121.4,0-127.8,4.3-225.8,102.2c-53.2,55.4-125.7,153.4-157.6,217.3c-49,95.8-78.8,125.7-166.1,170.4c-66,31.9-153.3,55.4-238.5,59.6c-104.4,6.4-140.6,19.2-178.9,59.6l-46.9,49l-144.8-119.3c-78.8-66-149.1-132-155.5-147c-19.2-51.1-76.7-6.4-76.7,55.4c0,85.2,31.9,157.6,117.1,270.5c42.6,55.4,80.9,136.3,89.5,183.2c10.7,72.4,23.4,87.3,100.1,121.4c70.3,29.8,98,57.5,138.4,142.7c46.9,102.2,53.2,106.5,178.9,136.3c95.8,21.3,134.2,40.5,138.4,68.1c8.5,42.6-53.2,123.5-89.4,119.3C2921.2,4002.1,2844.6,3993.6,2765.8,3982.9z"/><path d="M7517.5,2330.1c-91.6-10.6-121.4-59.6-63.9-115c23.4-19.2,46.9-70.3,55.4-110.7c12.8-72.4,17-74.5,125.7-83.1c89.5-8.5,119.3,0,159.7,34.1c63.9,57.5,59.6,106.5-21.3,206.6C7702.8,2347.2,7700.7,2349.3,7517.5,2330.1z"/><path d="M6446.2,1625.2c-257.7-170.4-308.8-219.4-308.8-291.8c0-166.1,17-195.9,136.3-225.8c68.1-19.2,108.6-42.6,108.6-61.8c0-34.1-132.1-80.9-238.5-83.1c-151.2-4.3-255.6-181-217.3-364.2c8.5-40.5,19.2-155.5,21.3-255.6l4.3-181l-112.9-68.2c-63.9-38.3-127.8-70.3-142.7-70.3c-46.9,0-36.2,302.5,12.8,400.4c76.7,153.4,95.8,238.5,61.8,274.8c-25.6,25.6-42.6,25.6-93.7,2.1c-80.9-36.2-85.2-44.7-115-200.2c-25.6-129.9-27.7-132.1-119.3-168.3c-100.1-38.3-242.8-170.4-242.8-223.6c0-19.2,10.7-44.7,23.4-57.5c14.9-14.9,14.9-51.1-2.1-119.3c-23.4-89.5-31.9-98-108.6-110.8c-95.8-17-102.2-38.3-51.1-181c29.8-83.1,29.8-110.8-8.5-306.7c-23.4-119.3-66-281.1-98-364.2c-59.6-157.6-59.6-223.6-8.5-468.6c21.3-91.6,17-127.8-21.3-253.4c-66-215.1-61.8-249.2,80.9-489.9c153.4-259.9,319.5-626.2,385.5-845.6l46.9-161.9l-57.5-359.9c-49-300.3-72.4-394-149.1-572.9c-51.1-117.1-100.1-255.6-106.5-306.7c-12.8-76.7-36.2-112.9-125.7-195.9l-108.6-102.2l142.7-2.1c142.7,0,1561.2,144.8,1974.4,202.3c123.5,17,225.8,31.9,230,31.9s6.4-23.4,6.4-53.3c0-63.9,10.7-63.9,255.6-21.3c174.7,31.9,913.7,142.7,1145.9,170.4c98,12.8,110.8,21.3,110.8,63.9c0,74.6,149.1,347.2,227.9,415.3c70.3,61.8,70.3,63.9,70.3,251.3c0,176.8,2.1,191.7,59.6,242.8c31.9,29.8,74.5,59.6,95.8,66c27.7,10.6,36.2,38.3,36.2,132.1c0,85.2,14.9,149.1,53.2,223.6c59.6,117.1,95.8,132.1,142.7,59.6c32-46.9,32-46.9,119.3-8.5l89.5,40.4l-12.8,332.3l-12.8,332.2l-112.9,298.2c-63.9,164-151.2,443-193.8,617.7c-68.2,274.8-91.6,336.5-164,436.6c-46.9,66-129.9,149.1-183.2,185.3l-95.8,68.2l-57.5-42.6c-32-21.3-119.3-68.2-193.8-102.2l-138.4-61.8l-70.3-176.8c-76.7-191.7-253.5-455.8-321.6-477.1c-40.5-12.8-232.2,76.7-276.9,129.9c-14.9,19.2-17.1,93.7-8.5,219.4l14.9,189.5l121.4,44.7l121.4,44.7l51.1,210.9c46.9,202.3,53.3,215.1,136.3,272.6l85.2,61.8l-4.3,349.3c-6.4,340.8-8.5,353.6-63.9,434.5c-29.8,44.7-78.8,95.8-106.5,115c-25.6,17.1-63.9,66-80.9,106.5c-38.4,93.7-8.5,140.6,80.9,123.5c51.1-10.6,61.7-4.3,72.4,44.7c12.8,46.9,2.1,66-74.5,129.9c-49,40.5-112.9,119.3-142.7,176.8c-51.1,102.2-53.3,104.4-153.3,104.4c-149.1,0-385.5,87.3-604.9,223.6c-153.3,95.8-204.5,117.1-283.3,117.1c-51.1,0-100.1-8.5-106.5-21.3c-23.4-38.3-66-23.4-193.8,74.5c-68.2,51.1-129.9,93.7-136.3,93.7C6535.6,1682.7,6493,1655,6446.2,1625.2z"/></g></g>
</svg>