<?xml version="1.0" encoding="utf-8"?>
<!-- Svg Vector Icons : http://www.onlinewebfonts.com/icon -->
<!DOCTYPE svg PUBLIC "-//W3C//DTD SVG 1.1//EN" "http://www.w3.org/Graphics/SVG/1.1/DTD/svg11.dtd">
<svg version="1.1" xmlns="http://www.w3.org/2000/svg" xmlns:xlink="http://www.w3.org/1999/xlink" x="0px" y="0px" viewBox="0 0 1000 1000" enable-background="new 0 0 1000 1000" xml:space="preserve">
<metadata> Svg Vector Icons : http://www.onlinewebfonts.com/icon </metadata>
<g><g transform="translate(0.000000,511.000000) scale(0.100000,-0.100000)"><path d="M2925.1,4941.9c-6.4-38.3-12.8-183-12.8-321.4v-253.2H1752.5c-638.4,0-1159.8-8.5-1159.8-17c0-10.6,29.8-102.2,63.8-206.4l63.8-189.4l-31.9-180.9c-19.1-112.8-31.9-317.1-31.9-532c0-329.9,4.3-359.7,66-559.7c36.2-117,97.9-272.4,136.2-342.6c70.2-129.8,72.4-138.3,85.1-472.4c19.2-455.4,142.6-1368.4,236.2-1742.9c72.4-289.4,74.5-310.7,78.7-744.8l4.3-444.8l-132-108.5c-97.9-83-131.9-123.4-131.9-166c-2.1-89.4,72.4-195.8,234.1-327.7c80.9-66,159.6-140.4,174.5-166c17-31.9,29.8-451.2,44.7-1500.4l19.1-1455.6l2300.5,14.9c2068.5,14.9,3890.2,53.2,3920,83c6.4,6.4,4.2,102.1-4.2,212.8c-17.1,255.4-36.2,280.9-412.9,544.8c-244.7,174.5-291.6,217.1-423.5,393.7c-125.6,170.2-161.7,202.2-259.6,246.9c-63.8,25.5-163.9,89.4-223.5,140.4c-97.9,85.1-119.2,93.6-223.4,95.8c-114.9,0-114.9,0-225.6,136.2c-61.7,74.5-123.4,161.7-136.2,195.8c-12.8,31.9-23.4,227.7-25.5,432c-4.3,342.6,0,383.1,44.7,491.6c42.6,104.3,44.7,134,25.5,221.3c-12.8,57.5-63.8,157.5-117,234.1l-95.8,132l76.6,223.5l74.5,225.6l206.4,159.6c334.1,257.5,308.6,200,310.7,681l2.1,412.9L6389.7,609c117.1,136.2,376.7,340.5,459.7,359.6c29.8,8.5,134.1,100,240.5,217.1c104.3,110.7,210.7,208.6,238.3,214.9c31.9,8.5,74.5,51.1,108.5,110.7c310.7,538.4,402.2,623.5,913,842.7c527.8,225.6,998.1,438.4,1015.1,455.4c6.4,8.5,21.3,51.1,27.7,95.8l14.9,78.7l-155.4-12.8c-108.5-10.6-170.2-25.5-202.2-53.2c-23.4-23.4-53.2-40.4-63.8-40.4c-12.8,0-49,51.1-85.1,112.8l-63.8,110.7l-338.4-8.5c-242.6-6.4-353.3-17-383.1-36.2c-76.6-53.2-110.7-36.2-168.1,89.4c-42.6,91.5-63.9,114.9-91.5,106.4c-21.3-4.3-68.1-14.9-104.3-23.4c-40.4-6.4-108.6-57.5-180.9-129.8c-159.6-163.9-251.1-206.4-400.1-193.7c-66,4.3-155.4,25.5-197.9,44.7c-74.5,31.9-80.9,40.4-80.9,121.3v89.4l-89.4-12.8c-134.1-17-244.7,44.7-261.8,149c-25.5,153.2-57.5,172.4-140.4,89.4c-38.3-38.3-59.6-42.6-132-31.9c-123.4,21.3-442.6,166-634.2,291.6c-140.5,91.5-174.5,104.3-272.4,104.3c-78.7,0-127.7,12.8-163.8,40.4c-44.7,34-63.8,38.3-131.9,19.1c-91.5-25.5-195.8-114.9-195.8-170.2c0-34-21.3-38.3-191.5-38.3h-191.5v72.4c0,66-6.4,72.4-78.7,85.1c-44.7,6.4-155.3,12.8-244.7,12.8h-161.7l-14.9,63.8l-14.9,63.8h-187.3c-180.9,0-189.4,2.1-251.1,66c-51.1,53.2-72.4,108.5-119.2,302.2c-29.8,131.9-63.8,310.7-76.6,398c-12.8,87.3-27.7,178.8-31.9,202.2c-10.6,55.3-125.6,110.7-261.8,129.8L2940,5010L2925.1,4941.9z"/></g></g>
</svg>