<?xml version="1.0" encoding="utf-8"?>
<!-- Svg Vector Icons : http://www.onlinewebfonts.com/icon -->
<!DOCTYPE svg PUBLIC "-//W3C//DTD SVG 1.1//EN" "http://www.w3.org/Graphics/SVG/1.1/DTD/svg11.dtd">
<svg version="1.1" xmlns="http://www.w3.org/2000/svg" xmlns:xlink="http://www.w3.org/1999/xlink" x="0px" y="0px" viewBox="0 0 1000 1000" enable-background="new 0 0 1000 1000" xml:space="preserve">
<metadata> Svg Vector Icons : http://www.onlinewebfonts.com/icon </metadata>
<g><g transform="translate(0.000000,511.000000) scale(0.100000,-0.100000)"><path d="M5407.6,4389.9C4977,4343,2466,4251.3,1133.8,4232.2c-492.4-6.4-927.2-17.1-963.5-23.5l-70.3-10.7l46.9-89.5c34.1-66.1,44.8-119.4,40.5-204.6c-4.3-113,0-123.6,155.6-351.7c326.1-481.7,500.9-656.5,682.1-684.2c174.8-23.4,204.6-55.4,204.6-213.2c0-127.9-4.3-138.6-72.5-196.1c-55.4-44.8-81-87.4-95.9-162c-23.4-98.1-21.3-104.5,61.8-243c127.9-211,287.8-396.5,413.5-483.9l110.8-74.6l57.5-528.6l59.7-528.6l-32-1502.8c-27.7-1411.1-25.6-1788.4,21.3-2204l12.8-125.8l1229.9,12.8c1197.9,12.8,2383.1,46.9,3977.5,110.8c434.9,17.1,961.3,32,1172.4,32c432.7,0,370.9,23.4,503-191.8c59.7-95.9,59.7-95.9,29.9-234.5c-23.4-117.2-40.5-147.1-110.8-202.5c-157.7-125.8-198.2-170.5-211-236.6l-12.8-68.2l226-14.9c149.2-10.6,283.5-6.4,394.3,10.7l166.3,25.6l76.7,249.4c44.8,151.3,83.1,336.8,100.2,481.7c17.1,168.4,34.1,245.1,59.7,268.6c125.8,123.7,307,264.3,394.3,309.1l100.2,51.2v125.8c0,68.2,10.7,155.6,23.4,194c21.3,59.7,19.2,81-12.8,140.7c-36.2,70.4-44.8,72.5-162,72.5c-119.4,0-123.6,2.1-211,104.5c-59.7,74.6-106.6,164.1-149.2,292c-63.9,185.5-63.9,187.6-29.8,296.3l36.2,110.8l-81,136.4c-42.6,74.6-115.1,226-159.9,338.9l-81,202.5l-204.6,34.1c-225.9,36.2-189.7,17.1-599,351.7c-206.8,168.4-215.3,179.1-283.5,347.5c-68.2,172.7-68.2,174.8-36.2,296.3c17.1,66.1,74.6,249.4,125.8,402.9c51.2,155.6,102.3,334.7,108.7,396.5l14.9,110.8l-83.1,42.6c-51.1,25.6-187.6,53.3-368.8,72.5l-285.6,34.1l-49,72.5c-40.5,59.7-49,102.3-49,234.5c0,89.5-8.5,174.8-19.2,191.8c-10.7,14.9-119.4,91.7-243,170.5c-200.4,125.8-253.7,174.8-520.1,471.1l-296.3,330.4l-98.1,319.7c-110.8,356-136.4,599-81,771.6l27.7,91.7l-100.2,121.5c-53.3,68.2-121.5,168.4-151.3,225.9l-53.3,100.2l-113-2.1C5618.6,4409.1,5495,4400.5,5407.6,4389.9z"/></g></g>
</svg>