<?xml version="1.0" encoding="utf-8"?>
<!-- Svg Vector Icons : http://www.onlinewebfonts.com/icon -->
<!DOCTYPE svg PUBLIC "-//W3C//DTD SVG 1.1//EN" "http://www.w3.org/Graphics/SVG/1.1/DTD/svg11.dtd">
<svg version="1.1" xmlns="http://www.w3.org/2000/svg" xmlns:xlink="http://www.w3.org/1999/xlink" x="0px" y="0px" viewBox="0 0 1000 1000" enable-background="new 0 0 1000 1000" xml:space="preserve">
<metadata> Svg Vector Icons : http://www.onlinewebfonts.com/icon </metadata>
<g><g transform="translate(0.000000,511.000000) scale(0.100000,-0.100000)"><path d="M5969.1,4912c-754.2-61.8-1231.4-91.6-1495.6-91.6l-389.9-2.1v-93.7c0-187.5-14.9-215.2-147-272.7c-117.2-53.3-121.4-55.4-242.9-289.7c-121.4-234.3-123.6-236.5-89.5-302.5c21.3-42.6,32-106.5,27.7-174.7l-6.4-108.6l-119.3-40.5c-117.2-38.3-123.6-46.9-283.3-281.2l-166.2-240.7l27.7-89.5l25.6-89.5l-129.9-132.1l-130-132.1l-44.7-287.6c-23.4-157.7-53.3-317.4-61.8-353.7c-14.9-57.5-8.5-83.1,42.6-159.8l61.8-93.7l-61.8-61.8l-61.8-59.7l59.6-132.1c40.5-89.5,68.2-196,83.1-330.2c21.3-198.1,21.3-198.1-42.6-326c-63.9-125.7-63.9-130-49-364.3c12.8-219.4,21.3-255.7,106.5-449.5c74.6-168.3,91.6-223.7,81-287.6c-12.8-74.6-6.4-83.1,85.2-159.8c104.4-85.2,110.8-102.2,74.6-266.3c-19.2-87.3-29.8-106.5-72.4-112.9l-51.1-6.4l38.3-87.3l40.5-87.4l-213-370.7c-117.2-204.5-294-515.6-392-692.4L2292-2440.1l-32-366.4c-23.4-279.1-25.6-385.6-8.5-441l23.4-72.4l121.4,10.7c66,6.4,547.5,21.3,1069.5,34.1c541.1,12.8,1152.6,40.5,1427.4,63.9c423.9,36.2,481.5,36.2,509.2,8.5c29.8-27.7,27.7-70.3-17-381.3l-51.1-347.3l159.8-151.3c136.4-130,161.9-166.2,185.4-264.2c36.2-142.7,153.4-443.1,172.6-443.1c36.2,0,127.8,110.8,223.7,270.6l102.3,172.5l83.1-38.3c83.1-36.2,85.2-36.2,364.3,44.7c317.4,91.6,432.5,100.1,566.7,40.5c72.4-34.1,138.5-42.6,321.7-42.6c228,0,230.1,0,242.9,53.3c25.5,98-115.1,1395.4-245,2290.2l-130,884.1l12.8,777.6c8.5,428.2,29.8,1286.8,44.7,1906.7c34.1,1229.3,40.5,2202.9,17,2957l-12.8,483.6l-183.2-2.1C7160.1,5005.7,6578.4,4963.1,5969.1,4912z"/></g></g>
</svg>