<?xml version="1.0" encoding="utf-8"?>
<!-- Svg Vector Icons : http://www.onlinewebfonts.com/icon -->
<!DOCTYPE svg PUBLIC "-//W3C//DTD SVG 1.1//EN" "http://www.w3.org/Graphics/SVG/1.1/DTD/svg11.dtd">
<svg version="1.1" xmlns="http://www.w3.org/2000/svg" xmlns:xlink="http://www.w3.org/1999/xlink" x="0px" y="0px" viewBox="0 0 1000 1000" enable-background="new 0 0 1000 1000" xml:space="preserve">
<metadata> Svg Vector Icons : http://www.onlinewebfonts.com/icon </metadata>
<g><g transform="translate(0.000000,511.000000) scale(0.100000,-0.100000)"><path d="M312.9,3073.5c-17-80.9-72.4-342.8-123.5-585.5L100,2047.2l91.6-206.5l93.7-204.4L249,1502.1C215,1372.3,215,1368,261.8,1248.8c40.5-100.1,63.9-127.7,142.7-168.2c89.4-44.7,97.9-57.5,215-334.3c70.3-166.1,153.3-323.6,193.8-372.6c40.4-46.8,85.2-106.5,97.9-132c14.9-25.5,53.2-51.1,89.4-59.6c78.8-17,127.7-63.9,127.7-121.4c0-25.6-85.2-259.8-191.6-519.5c-119.2-293.8-191.6-502.5-191.6-551.5c0-80.9,108.6-244.9,164-244.9c38.3,0,242.7,123.5,287.4,174.6c21.3,23.4,53.2,38.3,74.5,34.1c31.9-6.4,40.4-40.4,53.2-229.9c6.4-123.5,42.6-347.1,76.6-498.2l61.8-272.5l153.3-142.7l153.3-140.5l4.3-198c4.3-170.3,10.6-204.4,46.8-229.9c36.2-27.7,46.8-23.4,106.5,34.1c80.9,76.6,166.1,83,291.7,19.2c76.6-38.3,100.1-42.6,166.1-21.3c123.5,36.2,298.1,27.7,404.5-21.3c68.1-29.8,117.1-38.3,174.6-29.8c72.4,12.8,80.9,21.3,80.9,74.5c0,80.9,51.1,127.8,136.3,127.8c87.3,0,112.9-29.8,132-144.8c12.8-78.8,78.8-174.6,104.3-149c6.4,4.3,27.7,140.5,49,300.2c21.3,161.8,44.7,296,51.1,302.3c6.4,6.4,623.8-74.5,1371.2-181c749.5-104.3,1920.5-253.4,2606.1-330c685.6-74.5,1401-157.6,1590.5-183.1c189.5-25.5,357.7-40.5,374.7-34.1c21.3,8.5,34.1,112.9,55.4,428c17,264,40.4,466.3,66,551.4c19.2,74.5,44.7,253.4,53.2,400.3c10.6,221.4,63.9,824,200.1,2297.4c29.8,319.4,74.5,1085.9,63.9,1096.5c-6.4,4.3-387.5,42.6-849.5,85.2c-1435.1,132-3366.2,381.1-4929,636.6c-1177.4,193.8-1771.5,304.5-2812.6,525.9c-494,104.3-911.3,189.5-930.4,189.5C355.5,3216.1,336.3,3173.5,312.9,3073.5z"/></g></g>
</svg>