<?xml version="1.0" encoding="utf-8"?>
<!-- Svg Vector Icons : http://www.onlinewebfonts.com/icon -->
<!DOCTYPE svg PUBLIC "-//W3C//DTD SVG 1.1//EN" "http://www.w3.org/Graphics/SVG/1.1/DTD/svg11.dtd">
<svg version="1.1" xmlns="http://www.w3.org/2000/svg" xmlns:xlink="http://www.w3.org/1999/xlink" x="0px" y="0px" viewBox="0 0 1000 1000" enable-background="new 0 0 1000 1000" xml:space="preserve">
<metadata> Svg Vector Icons : http://www.onlinewebfonts.com/icon </metadata>
<g><g transform="translate(0.000000,511.000000) scale(0.100000,-0.100000)"><path d="M8640.1,2127.9c-423.5-106.4-1723.8-387.3-2606.9-561.8c-553.3-110.7-1396.1-240.5-2074.9-321.3c-251.1-29.8-561.8-74.5-689.5-97.9c-195.8-36.2-255.4-40.4-363.9-21.3c-72.4,12.8-136.2,23.4-142.6,23.4c-6.4,0-17-83-21.3-185.2l-10.6-185.1l-95.8-85.1c-55.3-49-123.4-138.3-155.3-202.2c-53.2-106.4-59.6-112.8-123.4-102.2c-121.3,17-197.9-19.2-270.3-134.1c-57.5-89.4-78.7-106.4-134.1-106.4c-36.2,0-83,17-104.3,36.2c-40.4,36.2-46.8,31.9-174.5-100c-106.4-108.5-136.2-157.5-146.8-225.6c-12.8-80.9-23.4-89.4-146.8-149c-72.4-34.1-197.9-114.9-276.7-180.9c-80.9-63.8-195.8-136.2-257.5-157.5c-59.6-21.3-174.5-80.9-253.3-131.9C451.1-851.4,449-853.6,436.2-966.3c-14.9-114.9-14.9-114.9-106.4-138.3c-146.8-36.2-200-97.9-214.9-244.7L100-1475l189.4,14.9c280.9,21.3,538.4,51.1,849.1,100c312.8,51.1,455.4,102.1,942.8,346.9c297.9,149,323.5,157.5,532,180.9c121.3,12.8,461.8,29.8,757.6,38.3l534.2,12.8l89.4-61.7c55.3-38.3,106.4-100,136.2-166c48.9-102.2,51.1-102.2,136.2-89.4c46.8,6.4,285.2,36.2,529.9,68.1c370.3,44.7,459.7,51.1,540.5,29.8c172.4-42.6,855.5-470.3,1174.7-734.2c159.6-131.9,308.6-251.1,329.9-263.9c34-21.3,74.5-19.2,212.8,14.9c93.6,23.4,234.1,51.1,310.7,57.5l140.5,14.9l25.5,114.9c59.6,257.5,142.6,468.2,244.7,608.6c131.9,180.9,453.3,442.6,681,557.6c155.4,76.6,187.3,85.1,327.7,83h155.4l91.5,140.5C9157.3-210.9,9244.5-44.9,9229.6-30c-6.4,6.4-53.2-27.7-106.4-74.5l-93.6-87.3l-23.4,53.2c-23.4,48.9-36.2,53.2-153.2,53.2c-125.6,0-129.8,2.1-114.9,48.9c97.9,300.1,108.5,349,83,383.1c-14.9,19.2-51.1,36.2-78.7,36.2c-38.3,0-57.5,14.9-68.1,48.9c-21.3,76.6-14.9,85.1,36.2,51.1c27.7-17,104.3-38.3,170.3-46.8c97.9-12.8,140.5-6.4,236.2,34.1c102.1,40.4,121.3,59.6,159.6,144.7c23.4,53.2,48.9,125.6,55.3,157.5c10.6,40.4,42.6,72.4,97.9,102.2c93.7,46.8,114.9,97.9,100,255.4c-10.6,104.3-10.6,104.3,53.2,104.3c46.8,0,59.6,8.5,48.9,34.1c-6.4,19.2-12.8,46.8-12.8,63.8c0,17-42.6,76.6-93.6,131.9c-108.5,117-283,423.5-355.4,627.8c-31.9,91.5-61.7,142.6-83,140.5C9070,2232.2,8867.9,2185.4,8640.1,2127.9z"/><path d="M9670.2,1295.8c-6.4-12.8,17-80.9,55.3-153.2c57.5-110.7,72.4-170.2,91.5-359.7c17-180.9,17-234.1-6.4-261.8c-14.9-17-36.2-31.9-46.8-31.9c-23.4,0-304.3-227.7-366-295.8c-38.3-42.6-38.3-44.7-2.1-44.7c21.3,0,89.4,48.9,153.2,108.5c61.7,57.5,166,131.9,232,161.7l119.2,55.3l-8.5,246.9c-8.5,240.5-12.8,251.1-97.9,423.5c-48.9,95.8-93.6,174.5-100,174.5C9689.3,1319.3,9678.7,1308.6,9670.2,1295.8z"/></g></g>
</svg>