<?xml version="1.0" encoding="utf-8"?>
<!-- Svg Vector Icons : http://www.onlinewebfonts.com/icon -->
<!DOCTYPE svg PUBLIC "-//W3C//DTD SVG 1.1//EN" "http://www.w3.org/Graphics/SVG/1.1/DTD/svg11.dtd">
<svg version="1.1" xmlns="http://www.w3.org/2000/svg" xmlns:xlink="http://www.w3.org/1999/xlink" x="0px" y="0px" viewBox="0 0 1000 1000" enable-background="new 0 0 1000 1000" xml:space="preserve">
<metadata> Svg Vector Icons : http://www.onlinewebfonts.com/icon </metadata>
<g><g transform="translate(0.000000,511.000000) scale(0.100000,-0.100000)"><path d="M563.8,3150.1c-23.4-74.5-436.2-4870.2-448.9-5210.6L100-2458.4l72.3-10.6c40.4-6.4,1183-83,2540.4-172.4c2387.2-153.2,2538.3-161.7,4617-223.4c1183-34.1,2244.7-68.1,2359.6-74.5l210.6-10.6l-14.9,327.6c-12.8,289.4-23.4,361.7-97.9,631.9C9674.5-1586,9540.4-603.1,9519.2-35l-14.9,391.5L9417,496.9c-55.3,87.2-114.9,223.4-157.4,366c-68.1,223.4-68.1,229.8-68.1,680.9c0,302.1,10.6,506.4,29.8,610.6l29.8,159.6l-85.1,223.4c-46.8,125.5-91.5,231.9-97.9,240.4c-8.5,6.4-531.9,23.4-1163.8,38.3c-2266,44.7-4474.5,140.4-6159.6,266c-544.7,40.4-1029.8,78.7-1080.8,85.1C602.1,3173.5,570.2,3169.3,563.8,3150.1z"/></g></g>
</svg>