<?xml version="1.0" encoding="utf-8"?>
<!-- Svg Vector Icons : http://www.onlinewebfonts.com/icon -->
<!DOCTYPE svg PUBLIC "-//W3C//DTD SVG 1.1//EN" "http://www.w3.org/Graphics/SVG/1.1/DTD/svg11.dtd">
<svg version="1.1" xmlns="http://www.w3.org/2000/svg" xmlns:xlink="http://www.w3.org/1999/xlink" x="0px" y="0px" viewBox="0 0 1000 1000" enable-background="new 0 0 1000 1000" xml:space="preserve">
<metadata> Svg Vector Icons : http://www.onlinewebfonts.com/icon </metadata>
<g><g transform="translate(0.000000,511.000000) scale(0.100000,-0.100000)"><path d="M385.7,2513.1c-12.8-49-296.1-2977.6-285.4-2986.1c4.3-4.3,519.7-49,1143.7-100.1l1133.1-91.6v-74.6c0-40.5-14.9-364.2-34.1-722c-19.2-355.7-27.7-651.7-21.3-660.3c29.8-27.7,1269.4-70.3,3963.8-129.9c1569.7-36.2,3024.5-66,3233.2-66H9900l-95.8,112.9c-144.8,170.4-249.2,345-249.2,419.6c0,36.2-23.4,110.8-51.1,166.1c-76.7,149.1-157.6,477.1-172.5,696.5c-6.4,108.6-36.2,259.9-63.9,351.4c-29.8,87.3-61.8,236.4-72.4,330.1c-12.8,132.1-34.1,202.3-93.7,308.8c-42.6,76.7-91.6,200.2-110.8,276.9c-19.2,76.7-76.7,264.1-132.1,419.6c-53.3,153.4-112.9,364.2-132.1,468.6l-34.1,187.4l-95.8,10.6c-93.7,10.7-95.9,12.8-142.7,127.8c-53.2,138.4-117.1,183.2-389.8,270.5c-100.1,31.9-213,80.9-253.5,110.8c-70.3,51.1-72.4,51.1-296,27.7c-123.5-14.9-291.8-46.9-370.6-72.4c-115-38.3-155.5-42.6-183.2-23.4c-19.2,14.9-102.2,66-185.3,117.1c-80.9,49-193.8,134.2-251.3,185.3l-100.1,93.7l-379.1-14.9c-391.9-14.9-1418.5,27.7-2768.9,115c-360,23.4-998.9,61.8-1420.6,85.2c-421.7,23.4-890.3,53.3-1043.7,63.9C451.7,2545,396.3,2545,385.7,2513.1z"/></g></g>
</svg>