<?xml version="1.0" encoding="utf-8"?>
<!-- Svg Vector Icons : http://www.onlinewebfonts.com/icon -->
<!DOCTYPE svg PUBLIC "-//W3C//DTD SVG 1.1//EN" "http://www.w3.org/Graphics/SVG/1.1/DTD/svg11.dtd">
<svg version="1.1" xmlns="http://www.w3.org/2000/svg" xmlns:xlink="http://www.w3.org/1999/xlink" x="0px" y="0px" viewBox="0 0 1000 1000" enable-background="new 0 0 1000 1000" xml:space="preserve">
<metadata> Svg Vector Icons : http://www.onlinewebfonts.com/icon </metadata>
<g><g transform="translate(0.000000,511.000000) scale(0.100000,-0.100000)"><path d="M3972.6,4933.4c-19.2-44.7-42.6-104.3-53.2-132c-19.2-49-21.3-49-68.1-10.7c-25.6,21.3-85.2,74.5-132,119.3l-87.3,80.9l-121.4-164l-121.4-164l2.1-457.9c0-253.4,12.8-647.4,25.5-875.2l25.6-415.3l155.4-215.1l153.3-215.1v-345v-345l-302.4-411l-304.5-411l-206.6-91.6l-208.7-89.4v-97.9c0-80.9,19.2-127.8,95.8-247l95.8-146.9v-643.1c0-551.6-10.6-758.1-72.4-1482.2c-40.5-462.1-78.8-1005.1-87.3-1205.3l-12.8-368.4l80.9-106.5l80.9-104.4l-12.8-370.5c-8.5-257.7-23.4-413.1-51.1-513.2l-40.5-144.8l49-36.2c27.7-21.3,80.9-55.4,121.4-76.7l72.4-38.3l1526.9,436.6l1526.9,436.5l129.9,210.8l127.8,208.7l304.5,140.5c381.2,174.6,411,204.4,532.4,575c49,144.8,83,270.4,72.4,279c-8.5,8.5-91.6,40.5-185.3,74.5c-93.7,31.9-181,68.1-193.8,80.9c-14.9,12.8-40.5,127.8-59.6,257.7c-19.2,127.8-38.3,236.4-42.6,238.5c-2.1,4.3-144.8,46.8-313,95.8c-168.2,46.8-308.8,89.4-313,91.6c-2.1,2.1-17,108.6-34.1,236.4c-23.4,200.2-117.1,517.5-679.3,2329.7c-359.9,1154.2-796.4,2549-971.1,3098.5l-315.2,1000.9l-78.8,6.4C4010.9,5014.3,4002.4,5010.1,3972.6,4933.4z"/></g></g>
</svg>