<?xml version="1.0" encoding="utf-8"?>
<!-- Svg Vector Icons : http://www.onlinewebfonts.com/icon -->
<!DOCTYPE svg PUBLIC "-//W3C//DTD SVG 1.1//EN" "http://www.w3.org/Graphics/SVG/1.1/DTD/svg11.dtd">
<svg version="1.1" xmlns="http://www.w3.org/2000/svg" xmlns:xlink="http://www.w3.org/1999/xlink" x="0px" y="0px" viewBox="0 0 1000 1000" enable-background="new 0 0 1000 1000" xml:space="preserve">
<metadata> Svg Vector Icons : http://www.onlinewebfonts.com/icon </metadata>
<g><g transform="translate(0.000000,511.000000) scale(0.100000,-0.100000)"><path d="M3626.6,4799l-185.4-213.1v-279.2v-279.2L3260,3739.9c-174.7-274.9-181.1-292-193.9-441.1l-12.8-153.4l117.2-115.1l119.3-115.1l-10.7-151.3c-21.3-300.5-8.5-279.2-228-387.9c-108.7-55.4-198.2-100.2-200.3-102.3c-2.1-2.1,25.6-104.4,61.8-225.9c36.2-123.6,76.7-281.3,89.5-351.6l23.4-127.9l249.3-29.8l249.3-29.8l87.4-236.5l87.4-236.6l541.3-362.3L4781.6,311v-85.2c0-81-10.7-95.9-274.9-341c-319.7-296.2-515.7-552-726.7-944.1l-142.8-262.1l-302.6-176.9c-168.3-95.9-313.3-187.5-321.8-204.6c-8.5-17-49-179-89.5-360.2l-72.5-326l100.2-206.7c98-198.2,108.7-211,398.5-471l298.3-266.4l434.7-202.5l434.7-200.3l358-59.7c196-32,366.5-63.9,375.1-70.3c10.7-4.3,23.4-66.1,29.8-132.1c8.5-117.2,4.2-130-63.9-213.1l-72.5-91.6l27.7-238.7l27.7-240.8l76.7-6.4c74.6-6.4,85.2,2.1,268.5,213.1l191.8,219.5l70.3,436.9l70.3,436.9l260,383.6c219.5,328.2,298.3,466.7,530.6,959l272.8,575.4l104.4,505.1l104.4,507.2l-61.8,110.8l-61.8,112.9l-12.8,846l-12.8,843.9l-140.6,300.5c-78.8,166.2-151.3,300.5-159.8,300.5c-10.7,0-59.7-29.8-108.7-63.9c-78.9-55.4-125.7-68.2-336.7-93.8c-242.9-29.8-245.1-29.8-294.1,14.9l-49,46.9l49,38.4c27.7,23.4,162,142.8,298.3,266.4l251.4,228v110.8c0,61.8-14.9,247.2-34.1,411.3c-34.1,289.8-34.1,306.9,10.7,560.5c36.2,206.7,42.6,298.3,29.8,441.1l-17.1,181.1l-230.1,102.3c-181.1,81-317.5,119.3-660.6,193.9c-654.2,142.8-1057,268.5-1440.6,451.8c-181.1,87.4-334.6,157.7-343.1,157.7S3726.8,4914.1,3626.6,4799z"/></g></g>
</svg>