<?xml version="1.0" encoding="utf-8"?>
<!-- Svg Vector Icons : http://www.onlinewebfonts.com/icon -->
<!DOCTYPE svg PUBLIC "-//W3C//DTD SVG 1.1//EN" "http://www.w3.org/Graphics/SVG/1.1/DTD/svg11.dtd">
<svg version="1.1" xmlns="http://www.w3.org/2000/svg" xmlns:xlink="http://www.w3.org/1999/xlink" x="0px" y="0px" viewBox="0 0 1000 1000" enable-background="new 0 0 1000 1000" xml:space="preserve">
<metadata> Svg Vector Icons : http://www.onlinewebfonts.com/icon </metadata>
<g><g transform="translate(0.000000,511.000000) scale(0.100000,-0.100000)"><path d="M1617.8,4963.1c-19.2-83.1-315.4-2297.5-607.4-4514.1C724.8-1731.3,515.9-3255.2,381.7-4131.2c-42.6-272.8-70.3-503-66.1-509.4c14.9-14.9,1101.9-155.6,1153-149.2c36.2,6.4,46.9,42.6,89.5,377.2c25.6,202.5,51.1,373,55.4,379.4c6.4,4.3,287.7-34.1,624.5-87.4c731-113,1609.1-232.3,1621.9-217.4c6.4,6.4,0,108.7-12.8,228c-12.8,119.4-19.2,221.7-14.9,228.1c21.3,19.2,756.6-40.5,1845.7-153.5c903.7-93.8,1329.9-127.9,2212.3-172.6c603.2-32,1099.8-53.3,1104-46.9c36.2,36.2,366.6,4588.7,488.1,6739.2c17,317.6,38.3,637.3,44.7,709.7l12.8,136.4l72.5-14.9l72.5-12.8v432.7v432.7l-1240.4,91.6c-1157.3,85.3-1430.1,115.1-3992,422C2939.2,4860.8,1686,5010,1666.8,5010C1645.5,5010,1624.2,4988.7,1617.8,4963.1z"/></g></g>
</svg>