<?xml version="1.0" encoding="utf-8"?>
<!-- Svg Vector Icons : http://www.onlinewebfonts.com/icon -->
<!DOCTYPE svg PUBLIC "-//W3C//DTD SVG 1.1//EN" "http://www.w3.org/Graphics/SVG/1.1/DTD/svg11.dtd">
<svg version="1.1" xmlns="http://www.w3.org/2000/svg" xmlns:xlink="http://www.w3.org/1999/xlink" x="0px" y="0px" viewBox="0 0 1000 1000" enable-background="new 0 0 1000 1000" xml:space="preserve">
<metadata> Svg Vector Icons : http://www.onlinewebfonts.com/icon </metadata>
<g><g transform="translate(0.000000,511.000000) scale(0.100000,-0.100000)"><path d="M2776.7,4984.5c-4.3-14.9-119.2-464-253.3-996.2c-134.1-532.1-289.5-1130.3-342.7-1330.4c-55.3-198-155.4-574.7-223.5-836.5l-125.6-474.7l278.8-419.3C2263.7,697.5,2981-373.2,3702.6-1450.2c721.6-1077.1,1496.4-2245.7,1722-2596.9c223.5-351.2,425.7-662,451.3-691.8l44.7-51.1l36.2,49c31.9,40.4,40.4,114.9,53.2,404.4c6.4,193.7,23.4,391.6,34.1,438.5c10.6,46.8,21.3,153.3,21.3,238.4c0,140.5,4.2,157.5,63.9,215c78.7,80.9,170.3,104.3,238.4,61.7c27.7-17,80.9-38.3,119.2-46.8c53.2-10.7,78.8-34.1,106.4-91.5c23.4-51.1,53.2-80.9,85.1-85.1c83-12.8,138.4,159.6,204.4,634.3c76.6,547.1,136.2,872.7,289.5,1553.9c132,600.3,255.4,1234.6,361.9,1868.9c36.2,215,161.8,862.1,278.8,1436.8C8102.4,3305,8145,3530.6,8157.7,3681.8l10.6,127.7l-238.4,57.5c-129.8,31.9-451.2,100-715.2,153.3c-472.6,91.5-1209.1,246.9-2149.9,455.5c-264,57.5-874.9,202.2-1360.2,319.3c-485.3,119.2-889.8,215-900.4,215C2793.7,5010,2781,4997.2,2776.7,4984.5z"/></g></g>
</svg>