<?xml version="1.0" encoding="utf-8"?>
<!-- Svg Vector Icons : http://www.onlinewebfonts.com/icon -->
<!DOCTYPE svg PUBLIC "-//W3C//DTD SVG 1.1//EN" "http://www.w3.org/Graphics/SVG/1.1/DTD/svg11.dtd">
<svg version="1.1" xmlns="http://www.w3.org/2000/svg" xmlns:xlink="http://www.w3.org/1999/xlink" x="0px" y="0px" viewBox="0 0 1000 1000" enable-background="new 0 0 1000 1000" xml:space="preserve">
<metadata> Svg Vector Icons : http://www.onlinewebfonts.com/icon </metadata>
<g><g transform="translate(0.000000,511.000000) scale(0.100000,-0.100000)"><path d="M6447.8,3771.6c-164.1-44.8-356-102.3-424.2-125.8c-83.1-27.7-183.3-42.6-285.6-42.6c-166.3,0-498.8-72.5-677.9-149.2c-159.9-68.2-296.3-181.2-447.6-368.8c-174.8-219.6-385.8-539.3-486-733.3c-61.8-123.6-119.4-191.8-319.7-381.6c-245.1-230.2-247.3-232.3-247.3-328.3c0-55.4,14.9-119.4,34.1-147.1c42.6-59.7,153.5-108.7,243-108.7c57.6,0,63.9-6.4,63.9-68.2c-2.1-38.4-19.2-102.3-40.5-142.8c-44.8-85.3-36.2-142.8,46.9-270.7c106.6-168.4,17.1-328.3-187.6-328.3c-72.5,0-95.9-12.8-151.3-81c-36.2-42.6-95.9-136.4-134.3-206.8c-40.5-70.3-108.7-157.7-153.5-194c-72.5-59.7-100.2-68.2-275-81C2805-1.3,2647.2-54.6,2512.9-150.5c-76.7-53.3-176.9-46.9-272.8,21.3c-53.3,38.4-93.8,44.8-294.2,44.8c-302.7,0-445.5-25.6-816.4-140.7c-302.7-95.9-584-230.2-569.1-275c6.4-10.7,40.5-119.4,81-240.9c70.3-215.3,72.5-217.4,138.6-217.4c61.8,0,70.3-8.5,125.8-149.2l59.7-151.4l-63.9-68.2c-110.8-119.4-194-238.7-208.9-298.4c-8.5-32-64-98.1-121.5-149.2c-104.4-87.4-213.2-194-289.9-281.4c-19.2-23.5-68.2-68.2-108.7-100.2l-72.5-55.4l25.6-240.9c14.9-134.3,29.8-245.1,34.1-251.5c32-29.8,3284.8,618.2,4636.2,923c392.2,89.5,729,162,748.2,162c19.2,0,70.3-42.6,112.9-95.9c76.7-91.7,81-93.8,219.6-100.2l142.8-6.4l59.7-223.8c51.1-196.1,68.2-232.4,140.7-300.6c66.1-61.8,106.6-81,198.2-93.8c64-8.5,134.3-32,157.7-53.3c98-89.5,500.9-234.5,831.3-298.4c70.3-14.9,176.9-55.4,238.7-91.7c127.9-76.7,142.8-123.6,106.6-356c-10.7-76.7-14.9-194-6.4-262.2c23.4-187.6,55.4-185.5,711.9,36.2l345.3,119.4l422.1,317.6c407.1,306.9,709.8,581.9,671.4,605.4c-10.7,6.4-81,36.2-159.9,63.9l-138.5,53.3l-157.7-157.7c-140.7-140.7-187.6-172.6-466.8-309.1c-328.3-159.8-356-164.1-586.2-115.1c-59.7,12.8-78.9,0-234.5-157.7c-106.6-108.7-189.7-174.8-223.8-176.9c-81-8.5-81,59.7,0,142.8c85.3,87.4,78.9,134.3-40.5,268.6l-83.1,95.9l40.5,72.5c32,63.9,38.4,125.8,38.4,415.7c2.1,311.2-4.3,373-74.6,703.4C7654.3-779.3,7650-726,7675.6-201.6c12.8,257.9,32,530.8,40.5,607.5c19.2,130,12.8,164.1-100.2,579.8l-121.5,441.2l-134.3,57.6c-74.6,32-134.3,63.9-134.3,72.5s12.8,59.7,29.8,117.2c29.8,95.9,27.7,106.6-17.1,211c-27.7,59.7-87.4,174.8-134.3,255.8l-85.3,145l38.4,153.5c36.2,140.7,38.4,164.1,6.4,343.2c-17.1,106.6-72.5,306.9-123.7,447.6c-57.5,157.7-100.2,313.3-108.7,405c-17.1,185.4-27.7,223.8-59.7,221.7C6756.9,3856.9,6612,3818.5,6447.8,3771.6z"/></g></g>
</svg>