<?xml version="1.0" encoding="utf-8"?>
<!-- Svg Vector Icons : http://www.onlinewebfonts.com/icon -->
<!DOCTYPE svg PUBLIC "-//W3C//DTD SVG 1.1//EN" "http://www.w3.org/Graphics/SVG/1.1/DTD/svg11.dtd">
<svg version="1.1" xmlns="http://www.w3.org/2000/svg" xmlns:xlink="http://www.w3.org/1999/xlink" x="0px" y="0px" viewBox="0 0 1000 1000" enable-background="new 0 0 1000 1000" xml:space="preserve">
<metadata> Svg Vector Icons : http://www.onlinewebfonts.com/icon </metadata>
<g><g transform="translate(0.000000,511.000000) scale(0.100000,-0.100000)"><path d="M8416.1,4794.5c-187.7-123.7-445.7-285.8-573.7-362.6c-213.3-128-270.8-174.9-693.1-603.6l-460.7-464.9l-202.6-46.9c-110.9-25.6-279.4-59.7-373.2-74.6c-128-23.5-249.5-68.2-488.4-183.4c-253.8-121.6-345.5-153.6-447.9-162.1l-130.1-10.7l-202.6,183.4c-181.3,164.2-209,183.4-270.9,172.8c-36.3-4.3-177-21.3-311.4-36.3l-243.1-27.7l-294.3,166.4l-294.3,166.3l-162.1-23.5c-590.8-85.3-2531.5-394.6-2546.5-407.4c-27.7-23.5,128-1657.1,241-2537.9c57.6-452.1,187.7-1565.4,287.9-2473.9c100.2-908.6,185.6-1674.2,191.9-1699.8c10.7-46.9,14.9-46.9,262.3-34.1c153.6,8.5,294.3,27.7,364.7,53.3c64,21.3,130.1,38.4,149.3,38.4s121.6-38.4,226.1-87.4l191.9-85.3l117.3-253.8l117.3-255.9h309.2h311.4l110.9-128c108.8-121.6,117.3-128,213.3-128c72.5,0,140.8,21.3,260.2,83.2l160,83.2l149.3-23.4c119.4-17.1,168.5-36.3,258.1-102.4c59.7-46.9,113-83.2,121.6-83.2c6.4,0,57.6,57.6,110.9,125.8c85.3,106.6,130.1,142.9,294.3,223.9c108.8,53.3,226.1,102.4,264.5,108.8l66.1,12.8l38.4-160c36.2-157.8,38.4-160,145-217.5c59.7-32,198.3-119.5,305-194.1c192-130.1,202.6-134.4,332.7-134.4c123.7,0,140.8,6.4,202.6,70.4c53.3,53.3,68.3,89.6,68.3,151.4c0,70.4,12.8,93.8,93.8,164.2l93.8,83.2l12.8,302.8c10.7,213.3,32,373.2,68.2,531c51.2,209,61.9,234.6,147.2,317.8l93.8,91.7l93.8-57.6c53.3-29.8,115.2-87.4,140.8-125.8c38.4-61.9,51.2-70.4,119.4-61.9c49,6.4,74.6,19.2,68.2,36.3c-6.4,12.8-17.1,78.9-25.6,145c-10.7,74.6-29.9,132.2-55.4,155.7c-32,29.9-40.5,66.1-40.5,179.2c0,130.1,6.4,151.4,70.4,236.7c40.5,51.2,138.6,194.1,221.8,317.8c83.2,123.7,174.9,247.4,206.9,275.1c53.3,49.1,59.7,51.2,174.9,25.6l119.5-27.7l138.6,96c202.6,140.8,471.3,452.1,633.4,729.4L9105-919.1l14.9,319.9c6.4,177,27.7,458.5,44.8,627c17.1,168.5,29.9,428.7,29.9,578c0,253.8-4.3,285.8-66.1,456.4c-76.8,211.1-74.6,219.7,72.5,388.2l81,91.7l-87.4,614.2c-132.2,917.1-422.3,2847.2-430.8,2853.6C8759.5,5014.1,8603.8,4916,8416.1,4794.5z"/></g></g>
</svg>