<?xml version="1.0" encoding="utf-8"?>
<!-- Svg Vector Icons : http://www.onlinewebfonts.com/icon -->
<!DOCTYPE svg PUBLIC "-//W3C//DTD SVG 1.1//EN" "http://www.w3.org/Graphics/SVG/1.1/DTD/svg11.dtd">
<svg version="1.1" xmlns="http://www.w3.org/2000/svg" xmlns:xlink="http://www.w3.org/1999/xlink" x="0px" y="0px" viewBox="0 0 1000 1000" enable-background="new 0 0 1000 1000" xml:space="preserve">
<metadata> Svg Vector Icons : http://www.onlinewebfonts.com/icon </metadata>
<g><g transform="translate(0.000000,511.000000) scale(0.100000,-0.100000)"><path d="M132.7,2612c-6.4-51.1-17.1-208.8-25.6-351.6c-12.8-217.4-8.5-262.1,14.9-262.1c17,0,313.3-19.2,658.5-42.6c345.2-23.4,1127.3-61.8,1736.8-87.4c609.5-25.6,1110.3-46.9,1112.4-49c2.1-2.1-27.7-349.5-70.3-769.3c-72.5-750.1-125.7-1915.8-95.9-2056.4c12.8-61.8,236.5-264.2,362.3-330.3c70.3-36.2,74.6-36.2,102.3,2.1c14.9,21.3,27.7,51.1,27.7,66.1c0,44.7,38.4,32,76.7-25.6c44.8-68.2,155.6-74.6,172.6-10.7c12.8,51.2,8.5,51.2,102.3,6.4l74.6-36.2l-12.8-134.3l-14.9-134.2h132.1c85.2,0,159.8-12.8,211-40.5c42.6-21.3,140.6-49,215.2-61.8c76.7-14.9,172.6-49,217.4-78.8c44.7-29.8,89.5-53.3,98-53.3c8.5,0,44.7,27.7,81,61.8c61.8,61.8,68.2,61.8,176.9,40.5c102.3-21.3,119.3-34.1,191.8-136.4c42.6-63.9,95.9-115.1,115.1-115.1c25.6,0,38.4-21.3,42.6-78.8c6.4-66.1,14.9-81,70.3-95.9c55.4-12.8,72.4-6.4,140.7,59.7c68.2,66,83.1,72.4,134.2,51.1c32-10.7,93.8-21.3,138.5-21.3c72.4,0,83.1-8.5,121.5-87.4c36.2-81,55.4-95.9,183.3-142.8c198.2-70.3,230.1-59.7,304.7,112.9c74.6,179,121.5,183.3,213.1,14.9c2.1-2.1,59.7-14.9,130-27.7c68.2-10.7,223.8-55.4,343.1-98c196.1-68.2,225.9-72.4,283.4-49c46.9,19.2,70.3,49,89.5,108.7l23.4,83.1h155.6c85.2,0,181.1-10.7,211-25.6c46.9-21.3,63.9-17.1,147,42.6c112.9,83.1,155.6,85.2,183.3,14.9c19.2-49,29.8-53.3,157.7-53.3s140.6,4.3,189.6,66.1c42.6,55.4,61.8,63.9,112.9,51.1c34.1-6.4,89.5-49,125.7-93.8c70.3-91.7,245.1-196.1,394.2-238.7c53.3-14.9,115.1-40.5,138.5-55.4c23.4-14.9,51.2-27.7,61.8-27.7c12.8,0,14.9,471,6.4,1231.7c-10.7,1063.4-19.2,1274.4-57.5,1559.9c-23.4,181.1-42.6,449.6-42.6,594.6c0,196.1-12.8,330.3-53.3,522.1c-59.7,296.2-95.9,571.1-95.9,728.8c0,59.7-6.4,136.4-12.8,170.5l-12.8,61.8l-1834.8,6.4c-1726.1,4.3-1935,8.5-3467.2,78.9c-897.2,40.5-1868.9,89.5-2163,106.5c-292,17.1-839.6,46.9-1214.7,63.9S232.8,2686.6,203,2693C149.7,2703.6,145.4,2697.2,132.7,2612z"/></g></g>
</svg>