<?xml version="1.0" encoding="utf-8"?>
<!-- Svg Vector Icons : http://www.onlinewebfonts.com/icon -->
<!DOCTYPE svg PUBLIC "-//W3C//DTD SVG 1.1//EN" "http://www.w3.org/Graphics/SVG/1.1/DTD/svg11.dtd">
<svg version="1.1" xmlns="http://www.w3.org/2000/svg" xmlns:xlink="http://www.w3.org/1999/xlink" x="0px" y="0px" viewBox="0 0 1000 1000" enable-background="new 0 0 1000 1000" xml:space="preserve">
<metadata> Svg Vector Icons : http://www.onlinewebfonts.com/icon </metadata>
<g><g transform="translate(0.000000,511.000000) scale(0.100000,-0.100000)"><path d="M2550,4111.3c-100.1-36.2-185.4-68.2-189.6-72.4c-4.3-4.3-95.9-272.7-204.5-598.7c-117.2-353.6-238.6-677.5-302.5-805.3c-59.6-117.2-185.3-430.4-281.2-698.8c-266.3-745.7-549.7-1323-984.3-2000.5L236.3-611.8l-27.7-291.9c-12.8-161.9-44.7-379.2-66-481.5c-23.4-102.3-42.6-200.2-42.6-215.2c0-14.9,40.5-80.9,89.5-149.1c87.3-117.2,91.6-121.4,313.2-196c123.6-40.5,451.7-140.6,726.5-219.4c274.8-81,758.4-225.8,1071.6-319.6c999.2-304.6,2492.6-694.5,4156.5-1090.8c890.5-210.9,1625.5-383.5,1634-383.5c8.5,0,74.6,247.1,147,549.6c242.9,1007.7,579.5,2271.1,654,2452.1c93.7,230.1,87.3,279.1-46.9,279.1c-78.8,0-100.1,10.6-136.3,61.8c-36.2,49-40.5,74.6-25.6,121.4c10.7,34.1,25.6,106.5,34.1,161.9c10.7,85.2,38.3,134.2,168.3,294c85.2,104.4,202.4,221.6,257.8,259.9c83.1,57.5,112.9,95.9,159.8,210.9c70.3,166.2,294,485.7,470.8,673.2c123.6,127.8,125.7,132.1,125.7,255.7v123.6l-115,87.3c-106.5,83.1-115,98-151.3,238.6c-32,138.5-42.6,153.4-102.3,172.6c-253.5,78.8-939.5,262.1-1386.9,366.4l-528.3,125.7h-551.8c-302.5,0-551.8,6.4-551.8,17c0,8.5-8.5,27.7-17,42.6c-14.9,21.3-57.5,12.8-193.9-40.5c-164-61.8-189.6-66-340.9-53.3c-121.4,10.6-183.2,27.7-245,68.2c-61.8,40.5-95.9,51.1-138.5,38.3c-29.8-8.5-125.7-12.8-213-10.7c-127.8,4.3-172.6,14.9-223.7,55.4c-72.4,55.4-375,181.1-436.7,181.1c-19.2,0-108.7,23.4-193.9,53.3l-157.7,53.3l-68.2-66l-68.2-66l-219.4,14.9l-217.3,14.9L3579,2916.2c-193.9,134.2-219.4,161.9-176.8,187.5c12.8,8.5,21.3,130,21.3,294c-2.1,281.2-2.1,281.2-74.6,409l-72.4,127.8l-144.9,21.3l-144.9,21.3l-27.7,89.5C2916.4,4202.9,2827,4211.5,2550,4111.3z"/></g></g>
</svg>