<?xml version="1.0" encoding="utf-8"?>
<!-- Svg Vector Icons : http://www.onlinewebfonts.com/icon -->
<!DOCTYPE svg PUBLIC "-//W3C//DTD SVG 1.1//EN" "http://www.w3.org/Graphics/SVG/1.1/DTD/svg11.dtd">
<svg version="1.1" xmlns="http://www.w3.org/2000/svg" xmlns:xlink="http://www.w3.org/1999/xlink" x="0px" y="0px" viewBox="0 0 1000 1000" enable-background="new 0 0 1000 1000" xml:space="preserve">
<metadata> Svg Vector Icons : http://www.onlinewebfonts.com/icon </metadata>
<g><g transform="translate(0.000000,511.000000) scale(0.100000,-0.100000)"><path d="M7708.6,3186.3c-1415.2-315.4-5385.7-1123.2-6046.4-1229.7l-430.5-70.3l-10.7,63.9c-4.3,36.2-17.1,187.6-25.6,338.9c-6.4,149.2-21.3,270.7-29.8,270.7c-6.4,0-132.1-119.4-274.9-266.4c-162-164.1-294.1-281.3-349.5-306.9C417.6,1931,100,1692.3,100,1654c0-14.9,61.8-439,138.5-939.9c113-739.5,162-1005.9,264.3-1413c70.3-277.1,204.6-918.6,298.4-1427.9c95.9-509.4,176.9-929.2,181.2-933.5c4.3-6.4,85.2,4.2,176.9,23.4c91.6,19.2,407.1,61.8,699,98c441.2,55.4,901.5,138.5,2653.4,490.2c1165.8,234.4,2527.7,503,3026.4,596.7c498.7,95.9,922.8,176.9,942,183.3c21.3,6.4,85.3,49,144.9,95.9c100.2,78.9,221.7,134.3,528.5,240.8c127.9,44.7,138.5,53.3,211,185.4c121.5,221.6,230.2,362.3,390,505.1c213.1,193.9,213.1,193.9-142.8,434.8C9324.1-12.7,9317.7-6.3,9277.2,108.8c-49,136.4-61.8,149.2-162,149.2c-121.5,0-170.5,21.3-170.5,72.5c0,23.4-19.2,106.6-42.6,181.2c-23.4,76.7-36.2,142.8-29.8,149.2c6.4,6.4,55.4,36.2,110.8,66.1c98,53.3,100.2,55.4,106.6,168.4c6.4,102.3,0,121.5-57.5,181.2c-57.5,59.7-63.9,76.7-51.1,151.3c6.4,46.9,55.4,149.2,106.6,230.2c87.4,134.3,91.6,151.3,91.6,296.3v153.4l115.1,119.4c63.9,63.9,119.3,140.7,123.6,170.5c6.4,51.1,0,53.3-123.6,63.9c-113,8.5-140.7,21.3-234.4,102.3c-87.4,76.7-123.6,134.3-223.8,351.7l-119.4,260l-149.2,53.3c-98,34.1-189.7,87.4-268.5,155.6c-63.9,55.4-130,98-147.1,98C8137,3280.1,7936.6,3237.5,7708.6,3186.3z"/></g></g>
</svg>