<?xml version="1.0" encoding="utf-8"?>
<!-- Svg Vector Icons : http://www.onlinewebfonts.com/icon -->
<!DOCTYPE svg PUBLIC "-//W3C//DTD SVG 1.1//EN" "http://www.w3.org/Graphics/SVG/1.1/DTD/svg11.dtd">
<svg version="1.1" xmlns="http://www.w3.org/2000/svg" xmlns:xlink="http://www.w3.org/1999/xlink" x="0px" y="0px" viewBox="0 0 1000 1000" enable-background="new 0 0 1000 1000" xml:space="preserve">
<metadata> Svg Vector Icons : http://www.onlinewebfonts.com/icon </metadata>
<g><g transform="translate(0.000000,511.000000) scale(0.100000,-0.100000)"><path d="M2555.3,4545.4c-944.2-253.6-1717.9-471-1722.1-483.8c-4.3-14.9,223.8-829.1,505.1-1811.6L1854,463.8l251.5-1366.2c247.2-1338.5,253.6-1387.5,394.3-2621.6c78.9-690.6,147.1-1261.7,151.3-1266c2.1-2.1,405,125.8,893,287.7l886.6,296.3l750.2,601.1l750.2,601l338.9,532.8c296.2,471,343.1,535,392.1,535c29.9,0,208.9-19.2,398.6-44.7l345.3-42.6l871.7,458.2c477.4,253.7,878.1,468.9,888.8,479.6c10.7,10.6-347.4,577.6-878.1,1389.6l-897.3,1372.6L6361.9,2998L5332.4,4319.4l-490.2,345.3c-268.6,189.7-507.3,345.3-530.7,345.3C4288,5007.9,3497.3,4801.1,2555.3,4545.4z"/></g></g>
</svg>