<?xml version="1.0" encoding="utf-8"?>
<!-- Svg Vector Icons : http://www.onlinewebfonts.com/icon -->
<!DOCTYPE svg PUBLIC "-//W3C//DTD SVG 1.1//EN" "http://www.w3.org/Graphics/SVG/1.1/DTD/svg11.dtd">
<svg version="1.1" xmlns="http://www.w3.org/2000/svg" xmlns:xlink="http://www.w3.org/1999/xlink" x="0px" y="0px" viewBox="0 0 1000 1000" enable-background="new 0 0 1000 1000" xml:space="preserve">
<metadata> Svg Vector Icons : http://www.onlinewebfonts.com/icon </metadata>
<g><g transform="translate(0.000000,511.000000) scale(0.100000,-0.100000)"><path d="M3653.2,3799.8c-528.4-17-954.5-42.6-1199.5-70.3l-377.1-44.7l-496.4-249.3c-270.6-136.4-647.7-313.2-835.2-392c-370.7-157.7-349.4-136.4-328.1-313.2c8.5-70.3,4.2-74.6-108.7-121.4c-100.1-40.5-123.6-61.8-166.2-149.1c-42.6-85.2-49-121.4-36.2-213.1c17-140.6,85.2-208.8,394.2-394.2l223.7-132.1l181.1,12.8l183.2,14.9l193.9-294c106.5-161.9,204.5-328.1,217.3-370.7c12.8-42.6,83.1-144.9,151.3-228c70.3-83.1,147-193.9,168.3-247.1c40.5-91.6,44.7-95.9,294-191.7c311.1-123.6,526.3-277,709.5-509.2c93.8-119.3,164.1-183.2,270.6-247.1c183.2-106.5,345.2-274.9,428.2-438.9c98-196,230.1-308.9,515.6-443.2l245-115.1l161.9-360c89.5-198.1,198.1-468.7,242.9-598.7l78.8-240.8l87.3-21.3c187.5-49,221.6-68.2,340.9-187.5c115-115.1,127.8-140.6,223.7-415.5c57.5-159.8,110.8-300.4,123.6-311.1c10.6-10.7,74.6-49,144.9-85.2c125.7-66,125.7-66,191.7-27.7c351.5,206.7,366.4,219.4,637,513.5c149.1,164.1,270.6,315.3,270.6,336.6c0,21.3-19.2,100.1-42.6,172.6c-23.4,74.6-42.6,144.9-42.6,155.5c0,10.7,68.2,19.2,151.3,19.2h151.3l206.7,193.9c112.9,108.7,245,215.2,296.1,238.6c70.3,34.1,115.1,83.1,200.3,217.3c61.8,93.8,187.5,249.3,281.2,347.3c102.3,106.5,213.1,249.3,279.1,362.2c106.5,183.2,110.8,185.4,236.5,228c68.2,23.4,136.4,49,147,57.5c12.8,6.4,44.7,74.6,72.5,151.3c46.9,121.4,61.8,142.8,144.9,183.2c51.1,23.4,91.6,55.4,91.6,70.3c2.1,14.9,14.9,176.8,29.8,357.9l27.7,330.2l142.7,340.9l144.9,340.9l298.3,300.4l298.3,302.5l-549.7,443.2c-522,419.7-590.2,466.6-1254.9,869.3c-573.1,345.2-735,432.5-873.5,475.1l-168.3,49L6131,3365.1c-504.9-57.5-933.2-106.5-948.1-106.5c-17,0-68.2,78.8-112.9,172.6c-66,134.2-115,200.3-213.1,287.6c-125.7,112.9-130,115-255.7,110.8C4531,3829.6,4104.9,3814.7,3653.2,3799.8z"/></g></g>
</svg>