<?xml version="1.0" encoding="utf-8"?>
<!-- Svg Vector Icons : http://www.onlinewebfonts.com/icon -->
<!DOCTYPE svg PUBLIC "-//W3C//DTD SVG 1.1//EN" "http://www.w3.org/Graphics/SVG/1.1/DTD/svg11.dtd">
<svg version="1.1" xmlns="http://www.w3.org/2000/svg" xmlns:xlink="http://www.w3.org/1999/xlink" x="0px" y="0px" viewBox="0 0 1000 1000" enable-background="new 0 0 1000 1000" xml:space="preserve">
<metadata> Svg Vector Icons : http://www.onlinewebfonts.com/icon </metadata>
<g><g transform="translate(0.000000,511.000000) scale(0.100000,-0.100000)"><path d="M514.1,3304.4c-63.9-387.7-166.2-1408.2-245-2439.2C186-253.3,90.2-1774.4,100.8-1787.2c10.6-8.5,931-70.3,2096.3-138.5c411.2-23.4,1071.6-68.2,1469.9-95.9c398.4-29.8,1169.6-76.7,1712.8-106.5c956.5-53.2,1003.4-55.4,1425.2-23.4l436.7,32l98-78.8c80.9-68.1,464.4-343,545.4-392c12.8-8.5,93.7,4.3,181.1,23.5c87.3,21.3,266.3,44.7,398.4,53.3l238.6,14.9l338.7-117.2c187.5-63.9,394.1-147,458-183.2c104.4-57.5,121.4-78.8,161.9-187.5c59.6-164,68.2-172.6,134.2-159.8l55.4,10.7l-46.9,70.3c-27.7,38.3-70.3,127.8-95.9,198.1l-49,127.8l76.7,147c49,100.1,87.3,223.7,115,370.7c23.4,121.4,40.5,221.6,40.5,223.7c-2.1,0-49,36.2-104.4,80.9c-89.5,72.4-100.1,89.5-112.9,191.7c-8.5,63.9-4.3,166.2,10.7,234.3c23.4,110.8,32,123.6,106.5,153.4c68.2,27.7,83.1,44.7,93.7,110.8c25.5,155.5,14.9,2848.3-12.8,2965.4c-21.3,95.9-40.5,121.4-181.1,240.7c-168.3,140.6-262,285.5-262,398.4c0,49,19.2,76.7,87.3,125.7c147,106.5,210.9,206.7,210.9,323.8v104.4h-132.1c-74.6,0-1150.4,29.8-2392.4,63.9l-2258.2,66L2736,3214.9L524.7,3370.4L514.1,3304.4z"/></g></g>
</svg>