<?xml version="1.0" encoding="utf-8"?>
<!-- Svg Vector Icons : http://www.onlinewebfonts.com/icon -->
<!DOCTYPE svg PUBLIC "-//W3C//DTD SVG 1.1//EN" "http://www.w3.org/Graphics/SVG/1.1/DTD/svg11.dtd">
<svg version="1.1" xmlns="http://www.w3.org/2000/svg" xmlns:xlink="http://www.w3.org/1999/xlink" x="0px" y="0px" viewBox="0 0 1000 1000" enable-background="new 0 0 1000 1000" xml:space="preserve">
<metadata> Svg Vector Icons : http://www.onlinewebfonts.com/icon </metadata>
<g><g transform="translate(0.000000,511.000000) scale(0.100000,-0.100000)"><path d="M9718.5,1732.6c-79-64.1-85.4-64.1-333.1-64.1c-179.4,0-369.5-19.2-647.1-64.1c-215.7-34.2-559.5-79-764.5-96.1c-1054.9-96.1-3957.1-382.3-4538-448.5c-367.3-40.6-730.4-74.7-807.2-74.7h-138.8v-126v-126l-132.4-12.8c-664.1-55.5-1037.9-76.9-1311.2-76.9H721.4l-15-196.5c-10.7-162.3-40.6-279.7-160.2-647.1c-81.1-245.6-153.8-493.3-160.2-546.7c-12.8-94-21.4-100.4-149.5-175.1l-136.7-79l49.1-119.6c49.1-117.5,49.1-126,17.1-262.7c-17.1-76.9-40.6-153.8-51.3-166.6c-36.3-44.8,322.5-34.2,1178.8,36.3c429.2,34.2,990.9,72.6,1249.3,85.4c258.4,12.8,926.8,66.2,1484.2,117.5c557.4,51.3,1148.9,104.6,1313.4,117.5c465.5,36.3,1247.2,130.3,1629.4,194.3l132.4,23.5v155.9c0,149.5,2.1,160.2,64.1,202.9c34.2,25.6,104.6,57.7,153.8,70.5c89.7,27.8,91.8,29.9,113.2,149.5c21.3,117.5,25.6,126,149.5,207.1c70.4,47,192.2,111.1,273.3,143.1c89.7,34.2,198.6,102.5,290.5,179.4c79,68.3,209.3,151.6,286.1,185.8c132.4,59.8,141,70.5,164.5,158c12.8,49.1,27.7,106.8,34.2,123.9c10.7,38.4,299,299,331,299c10.7,0,19.2-12.8,19.2-29.9c0-36.3,44.8-55.5,128.1-55.5c49.1,0,70.4,19.2,130.3,117.5c76.9,126,128.1,151.6,286.2,141c83.3-4.3,85.4-2.1,126,96.1c23.5,57.7,72.6,136.7,108.9,177.2C9885,1487,9900,1521.2,9900,1662.1c0,128.1-2.1,134.5-51.3,134.5C9821,1796.6,9763.3,1768.9,9718.5,1732.6z"/></g></g>
</svg>