<?xml version="1.0" encoding="utf-8"?>
<!-- Svg Vector Icons : http://www.onlinewebfonts.com/icon -->
<!DOCTYPE svg PUBLIC "-//W3C//DTD SVG 1.1//EN" "http://www.w3.org/Graphics/SVG/1.1/DTD/svg11.dtd">
<svg version="1.1" xmlns="http://www.w3.org/2000/svg" xmlns:xlink="http://www.w3.org/1999/xlink" x="0px" y="0px" viewBox="0 0 1000 1000" enable-background="new 0 0 1000 1000" xml:space="preserve">
<metadata> Svg Vector Icons : http://www.onlinewebfonts.com/icon </metadata>
<g><g transform="translate(0.000000,511.000000) scale(0.100000,-0.100000)"><path d="M3075.2,4886.6c-14.9-68.3-64-701.9-151.5-1949.9c-64-919.5-151.5-1949.9-168.5-1964.9c-14.9-14.9-1301.4,72.5-1922.2,130.1l-725.4,68.3l-6.4-59.7c-8.5-68.3,27.7-145.1,68.3-145.1s128-121.6,160-219.7c21.3-64,49.1-91.7,130.1-132.3c68.3-34.1,106.7-68.3,115.2-106.7c8.5-29.9,96-145.1,196.3-253.9C907.7,101.3,976,41.6,1048.5,13.9c51.2-19.2,93.9-42.7,93.9-49.1c0-8.5,29.9-44.8,64-83.2c36.3-38.4,64-85.3,64-102.4c0-17.1,29.9-87.5,64-157.9c55.5-108.8,64-151.5,64-302.9c2.1-217.6,34.1-285.9,245.3-514.1c104.5-113.1,177.1-170.7,245.3-196.3c53.3-21.3,125.9-68.3,162.1-108.8c72.5-78.9,403.2-251.8,448-234.7c51.2,19.2,260.3,324.3,285.9,416c32,123.7,115.2,204.8,275.2,266.7c164.3,66.1,164.3,66.1,228.3,14.9c32-25.6,102.4-44.8,194.1-53.3c298.7-27.7,443.7-59.7,492.8-104.5c25.6-23.5,46.9-55.5,46.9-70.4c0-12.8,81.1-104.5,181.3-202.7c100.3-98.2,181.3-189.9,181.3-202.7c0-12.8,14.9-36.3,32-51.2c17.1-14.9,36.3-59.7,44.8-104.5c8.5-42.7,66.1-198.4,128-347.7c64-149.3,115.2-285.9,115.2-305.1s34.1-53.3,74.7-76.8c49.1-29.9,102.4-93.9,153.6-187.8c108.8-196.3,194.1-300.8,275.2-334.9c113.1-46.9,138.7-100.3,104.5-215.5c-25.6-85.3-25.6-96,12.8-119.5c42.7-27.7,53.3-100.3,21.3-160c-27.8-53.3,6.4-121.6,78.9-166.4c51.2-29.9,68.3-57.6,79-134.4c8.5-53.3,34.1-145.1,57.6-200.5c38.4-87.5,61.9-110.9,168.6-164.3c66.1-34.1,189.9-81.1,273.1-104.6c83.2-23.5,183.5-68.3,226.2-100.3c68.3-51.2,206.9-81.1,428.8-91.8c12.8-2.1,83.2-40.5,155.8-87.5l134.4-87.5l72.5,55.5c78.9,61.9,87.5,87.5,42.7,149.3c-14.9,23.5-40.5,113.1-55.5,200.5c-15,87.5-44.8,221.9-66.1,298.7c-23.5,76.8-40.5,168.5-40.5,202.7c0,36.3,40.5,211.2,89.6,392.5l89.6,328.6l-47,36.3c-83.2,61.9-21.3,128,115.2,130.1c29.9,0,70.4,38.4,125.9,117.3c59.7,89.6,91.7,117.3,132.3,117.3c53.3,0,277.3,121.6,358.4,194.1c23.5,21.3,157.9,93.9,298.7,160c317.9,151.5,445.9,230.4,614.4,388.3c72.5,68.3,192,164.3,264.6,215.5c72.5,51.2,138.7,108.8,145.1,130.1c12.8,42.7,443.7,245.3,571.7,268.8l83.2,14.9l-12.8,89.6c-10.7,59.7-4.2,115.2,17.1,162.1c44.8,102.4,81,433.1,55.5,501.4c-17.1,44.8-10.7,72.5,36.3,153.6c53.3,89.6,59.8,121.6,59.8,292.3c0,189.9-2.1,198.4-89.6,349.9c-51.2,85.3-102.4,196.3-115.2,243.2c-12.8,46.9-44.8,121.6-74.7,166.4c-61.9,100.3-85.3,285.9-115.2,957.9c-23.5,535.5-25.6,546.2-160,509.9c-61.9-17.1-85.3-12.8-168.5,40.5c-53.3,34.1-140.8,74.7-192,89.6c-53.3,14.9-136.5,59.7-185.6,102.4c-81.1,70.4-91.7,74.7-155.8,51.2c-87.5-32-241.1-32-251.8-2.1c-6.4,17.1-27.7,14.9-70.4-6.4c-44.8-23.5-102.4-29.9-183.5-23.5c-108.8,10.7-123.8,6.4-136.5-34.1c-21.3-68.3-81.1-91.7-175-68.3c-236.8,61.9-381.9,113.1-409.6,145.1c-14.9,21.3-32,29.9-36.3,17.1c-32-78.9-100.3-160-134.4-160c-76.8,0-230.4,78.9-243.2,125.9c-8.5,34.1-27.7,44.8-89.6,44.8c-42.7,0-104.6-14.9-138.7-32c-74.7-38.4-170.7-6.4-170.7,57.6c0,21.3-8.5,38.4-19.2,38.4c-12.8,0-38.4,29.9-59.8,64c-27.7,51.2-51.2,64-106.7,64c-36.3,0-91.7-10.7-119.5-23.5c-40.5-19.2-64-17.1-102.4,8.5c-27.8,17.1-151.5,53.3-271,81.1l-221.9,49.1l8.5,70.4c8.5,72.5,4.3,76.8-96,70.4c-32-2.1-74.7,8.5-91.7,21.3c-21.3,19.2-29.9,19.2-29.9,2.1c0-32-76.8-29.9-145.1,6.4c-32,17.1-89.6,64-130.1,106.7l-72.5,74.7l12.8,465.1c6.4,256,32,642.1,55.5,859.8c23.5,217.6,44.8,401.1,44.8,407.5c0,8.5-189.9,19.2-420.3,27.7c-588.8,21.3-1324.8,51.2-1557.4,68.3C3088,4937.8,3085.9,4935.6,3075.2,4886.6z"/><path d="M7378.3-2774.5c-136.5-145.1-349.9-531.2-345.6-627.2c0-21.3,19.2,14.9,42.7,78.9c23.5,64,119.5,226.1,213.3,360.5c93.9,132.3,166.4,245.3,162.1,249.6C7446.6-2708.4,7414.6-2736.1,7378.3-2774.5z"/><path d="M6996.4-3760.1c6.4-166.4,19.2-243.2,61.8-352c29.9-76.8,59.8-204.8,68.3-283.7c8.5-81.1,19.2-140.8,27.7-134.4c29.9,29.9-2.1,249.6-61.8,418.1c-34.2,102.4-70.4,266.7-81.1,373.3l-21.3,192L6996.4-3760.1z"/></g></g>
</svg>