<?xml version="1.0" encoding="utf-8"?>
<!-- Svg Vector Icons : http://www.onlinewebfonts.com/icon -->
<!DOCTYPE svg PUBLIC "-//W3C//DTD SVG 1.1//EN" "http://www.w3.org/Graphics/SVG/1.1/DTD/svg11.dtd">
<svg version="1.1" xmlns="http://www.w3.org/2000/svg" xmlns:xlink="http://www.w3.org/1999/xlink" x="0px" y="0px" viewBox="0 0 1000 1000" enable-background="new 0 0 1000 1000" xml:space="preserve">
<metadata> Svg Vector Icons : http://www.onlinewebfonts.com/icon </metadata>
<g><g transform="translate(0.000000,511.000000) scale(0.100000,-0.100000)"><path d="M2542.5,3865.4c-125.8-630.9-281.3-1434.4-345.3-1786.1c-63.9-351.7-149.2-788.6-189.7-969.8c-40.5-181.2-110.8-575.5-159.9-873.9c-78.9-492.3-326.1-1769-524.3-2696.2c-70.3-330.4-225.9-1168-217.4-1176.5c2.1,0,549.9-100.2,1219.2-219.5c669.2-117.2,1786.1-319.7,2483-447.6c1178.6-215.3,3137.4-513.7,3167.2-483.8c34.1,34.1,117.2,573.3,349.6,2306.2c93.8,692.7,223.8,1626.2,287.7,2078.1c63.9,451.9,149.2,1176.5,191.8,1609.2c40.5,434.8,78.9,824.8,85.3,867.5c10.7,78.9,10.7,78.9-78.9,89.5c-51.1,6.4-537.1,61.8-1082.7,119.4c-1362,147.1-1415.2,153.5-1434.4,170.5c-10.7,8.5,25.6,264.3,78.9,566.9c100.2,577.6,211,1330,198.2,1344.9c-4.3,4.3-134.3,25.6-289.9,49c-260,38.4-901.6,149.2-2736.7,471c-396.4,68.2-733.2,125.8-746,125.8C2781.2,5010,2693.8,4617.8,2542.5,3865.4z"/></g></g>
</svg>