<?xml version="1.0" encoding="utf-8"?>
<!-- Svg Vector Icons : http://www.onlinewebfonts.com/icon -->
<!DOCTYPE svg PUBLIC "-//W3C//DTD SVG 1.1//EN" "http://www.w3.org/Graphics/SVG/1.1/DTD/svg11.dtd">
<svg version="1.1" xmlns="http://www.w3.org/2000/svg" xmlns:xlink="http://www.w3.org/1999/xlink" x="0px" y="0px" viewBox="0 0 1000 1000" enable-background="new 0 0 1000 1000" xml:space="preserve">
<metadata> Svg Vector Icons : http://www.onlinewebfonts.com/icon </metadata>
<g><g transform="translate(0.000000,511.000000) scale(0.100000,-0.100000)"><path d="M6460.3,2730.5c0-136.7-23.5-252.1-51.3-252.1c-12.8,0-179.4,62-369.6,136.7l-348.2,136.7v-179.5c0-173.1-4.3-190.1-104.7-399.5c-83.3-170.9-128.2-239.3-200.8-299.1c-68.4-55.5-106.8-109-134.6-185.9c-34.2-94-47-109-113.2-119.6c-42.7-8.5-91.9-21.4-109-32.1c-19.2-8.5-57.7-123.9-96.1-279.9l-66.2-262.8l-147.4-19.2l-147.4-19.2l-76.9,91.9c-62,72.6-87.6,87.6-121.8,76.9c-51.3-17.1-62-51.3-83.3-286.3c-10.7-130.3-42.7-224.3-194.4-576.8c-98.3-230.7-203-467.9-232.9-525.6c-49.1-94-51.3-106.8-21.4-138.9c40.6-44.9,44.9-136.7,8.5-200.8c-12.8-25.6-62-98.3-108.9-160.2c-79.1-104.7-89.7-111.1-156-98.3c-59.8,10.7-87.6,0-177.3-66.2c-100.4-72.6-113.2-74.8-188-55.6c-44.9,12.8-87.6,23.5-94,23.5c-6.4,0-42.7-76.9-81.2-168.8l-70.5-168.8l-141-53.4l-143.1-51.3l-96.1,47l-94,47l-156-81.2c-175.2-91.9-203-96.1-361.1-53.4c-83.3,21.4-130.3,51.3-192.3,121.8c-47,51.3-113.2,126.1-147.4,164.5l-66.2,72.6l-386.7-423C709-2035.9,706.9-2038,691.9-2153.4l-10.7-94l-294.8-170.9c-162.4-94-290.6-175.2-286.3-179.5c4.3-4.3,305.5,25.6,668.7,66.2c363.2,40.6,760.6,74.8,882.3,74.8c217.9,0,222.2,0,322.6,74.8l100.4,74.8l264.9-12.8c252.1-10.7,329-2.1,1625.8,181.6l1360.9,192.3l2130,461.5c1172.9,254.2,2136.4,463.6,2140.7,470c8.6,8.5-228.6,412.3-252.1,427.3c-6.4,4.3-106.8-19.2-220-51.3l-205.1-59.8l-53.4,55.5l-55.5,57.7l87.6,49.1c85.5,49.2,87.6,53.4,74.8,136.7c-8.5,55.5-40.6,115.4-87.6,168.8c-40.6,44.9-74.8,100.4-74.8,123.9c0,25.6-34.2,64.1-85.5,98.3c-68.4,44.9-85.5,70.5-85.5,119.7c0,62,2.1,64.1,96.1,55.5c87.6-6.4,98.3-2.1,111.1,42.7c8.5,36.3-2.1,59.8-34.2,83.3c-38.4,25.6-44.9,44.9-34.2,96.1c10.7,49.1,4.3,74.8-32.1,113.2c-42.7,47-44.9,64.1-32.1,228.6c17.1,211.5,0,237.1-170.9,262.8c-81.2,10.7-126.1,32.1-183.7,89.7c-68.4,64.1-106.8,79-309.8,123.9c-267.1,55.6-630.3,185.9-726.4,258.5c-115.4,85.5-117.5,288.4-6.4,405.9c23.5,25.6,57.7,104.7,74.8,179.5c29.9,128.2,29.9,132.5-21.4,196.6c-38.5,51.3-100.4,83.3-252.1,136.7c-108.9,40.6-239.3,87.6-290.5,106.8l-94,34.2l8.6,100.4l6.4,98.3l-128.2,47c-70.5,25.6-134.6,47-143.2,47C6466.7,2820.2,6460.3,2779.7,6460.3,2730.5z"/><path d="M9647.9,1297c-220-87.6-222.2-87.6-211.5-151.7c12.8-74.8-42.7-301.2-119.6-493.5c-32.1-85.5-55.6-198.7-66.3-329c-12.8-181.6-10.7-213.6,42.7-369.6l55.6-170.9l81.2,79.1c117.5,115.4,217.9,405.9,192.3,555.5c-21.4,123.9-4.3,408.1,27.8,470c10.7,23.5,62,96.1,111.1,160.2c72.6,96.1,138.9,252.1,138.9,329C9900,1397.4,9874.4,1388.8,9647.9,1297z"/></g></g>
</svg>