<?xml version="1.0" encoding="utf-8"?>
<!-- Svg Vector Icons : http://www.onlinewebfonts.com/icon -->
<!DOCTYPE svg PUBLIC "-//W3C//DTD SVG 1.1//EN" "http://www.w3.org/Graphics/SVG/1.1/DTD/svg11.dtd">
<svg version="1.1" xmlns="http://www.w3.org/2000/svg" xmlns:xlink="http://www.w3.org/1999/xlink" x="0px" y="0px" viewBox="0 0 1000 1000" enable-background="new 0 0 1000 1000" xml:space="preserve">
<metadata> Svg Vector Icons : http://www.onlinewebfonts.com/icon </metadata>
<g><g transform="translate(0.000000,511.000000) scale(0.100000,-0.100000)"><path d="M4777.7,4406.7c-1285.4-332.5-2344.9-609.7-2353.4-616.1c-6.4-8.5,19.2-208.9,57.6-445.5c68.2-428.5,72.5-439.1,289.9-1025.4l221.7-592.6l74.6-469l74.6-469l-89.5-356l-87.4-356l245.1-420c230.2-390.1,379.4-709.9,379.4-807.9c0-23.4-29.8-149.2-68.2-277.1c-36.2-127.9-61.8-236.6-57.6-240.9c4.3-4.3,142.8-68.2,307-140.7c164.1-74.6,307-140.7,315.5-149.2c8.5-8.5,113-411.4,230.2-897.5c164.1-686.4,228.1-995.5,285.6-1392c40.5-279.2,74.6-518,74.6-530.8c0-12.8,119.4-14.9,336.8-4.3c279.3,12.8,439.2,36.3,972.1,140.7c349.6,68.2,641.6,127.9,645.9,134.3c6.4,6.4-14.9,72.5-46.9,147.1l-57.6,136.4l44.8,157.7c34.1,123.7,46.9,249.4,57.5,573.4l12.8,415.7l-87.4,115.1l-87.4,117.2l12.8,373.1c6.4,206.8,44.8,758.9,85.3,1230c66.1,786.6,72.5,918.8,72.5,1688.3v835.6l-98.1,147.1c-87.4,132.2-95.9,155.6-89.5,257.9l6.4,113l225.9,98.1l226,98.1l334.7,362.4l332.5,362.4v379.5v379.4l-170.5,240.9l-170.5,243l-21.3,390.1c-32,556.4-42.6,658.7-70.3,656.6C7129,5010,6065.3,4737.1,4777.7,4406.7z"/></g></g>
</svg>