<?xml version="1.0" encoding="utf-8"?>
<!-- Svg Vector Icons : http://www.onlinewebfonts.com/icon -->
<!DOCTYPE svg PUBLIC "-//W3C//DTD SVG 1.1//EN" "http://www.w3.org/Graphics/SVG/1.1/DTD/svg11.dtd">
<svg version="1.1" xmlns="http://www.w3.org/2000/svg" xmlns:xlink="http://www.w3.org/1999/xlink" x="0px" y="0px" viewBox="0 0 1000 1000" enable-background="new 0 0 1000 1000" xml:space="preserve">
<metadata> Svg Vector Icons : http://www.onlinewebfonts.com/icon </metadata>
<g><g transform="translate(0.000000,511.000000) scale(0.100000,-0.100000)"><path d="M3002.3,3644.6c-25.6-25.6-46.9-53.3-46.9-61.8c0-10.7,38.3-102.3,85.2-204.6c112.9-245,157.7-541.2,100.2-660.5c-40.5-87.4-46.9-260-12.8-338.8c19.2-40.5,17-70.3-8.5-134.2c-25.6-63.9-27.7-108.7-10.7-219.5c10.7-76.7,34.1-153.4,51.1-172.6c40.5-44.7,38.3-144.9-2.1-159.8c-49-19.2-93.8,29.8-161.9,181.1c-36.2,76.7-89.5,166.2-119.3,198.2c-44.7,46.9-57.5,81-57.5,159.8c-2.1,98-2.1,100.1,83.1,121.4l87.4,23.4l-19.2,112.9c-10.7,63.9-29.8,110.8-44.8,110.8c-14.9,0-78.8-36.2-142.8-81c-108.7-74.6-115.1-87.4-125.7-185.4s-14.9-104.4-83.1-123.6c-93.8-23.4-328.1,32-502.9,119.3c-70.3,36.2-187.5,76.7-262.1,93.8c-74.6,14.9-223.7,68.2-330.3,117.2c-347.3,159.8-488,257.8-713.8,498.6c-147,155.5-232.3,228-281.3,242.9c-40.5,10.7-78.8,12.8-87.4,4.3c-8.5-8.5-55.4-187.5-104.4-396.3l-91.6-383.5l72.4-127.8c72.4-130,72.4-130,78.8-460.2c6.4-242.9-2.1-366.5-25.6-466.6c-29.8-132.1-29.8-144.9,32-436.8L422,714.8l106.5-108.7c59.7-61.8,100.1-115.1,89.5-121.5c-8.5-4.3-76.7-17.1-151.3-25.6c-172.6-19.2-196-44.7-196-208.8c0-130,0-132.1,81-174.7c98-53.3,110.8-121.5,46.9-277C351.7-318.6,321.8-339.9,194-339.9c-57.5,0-68.2-8.5-81-66c-27.7-144.9-14.9-202.4,74.6-315.4C283.5-840.7,292-844.9,362.3-798c40.5,25.6,72.5,27.7,185.4,8.5c200.3-32,338.8-95.9,353.7-166.2c6.4-29.8,14.9-66.1,19.2-78.8c4.3-12.8,72.4-36.2,153.4-51.1c78.8-14.9,159.8-34.1,179-44.7c19.2-8.5,70.3-85.2,112.9-166.2l78.8-149.1l-2.1-377.1l-4.3-375l198.2-155.5l196-155.5l242.9-14.9c234.4-14.9,245-12.8,294,32c46.9,42.6,66.1,46.9,174.7,36.2c296.2-32,801.2-185.4,948.2-289.8c87.3-61.8,102.3-63.9,358-70.3c240.8-8.5,277-14.9,372.9-66c155.5-83.1,370.7-81,611.5,6.4c213.1,78.8,245,78.8,315.4,10.7l57.5-55.4l519.9,25.6c285.5,12.8,577.5,19.2,647.8,12.8c234.4-23.4,1274.2-264.2,1841-428.3c306.8-89.5,566.8-157.7,575.3-153.4c8.5,6.4,23.4,181.1,29.8,389.9c10.7,340.9,21.3,436.8,121.5,943.9C9207.1-770.4,9473.4,414.4,9654.6,1028c210.9,720.2,257.8,888.5,242.9,901.3c-4.3,4.3-291.9,72.4-637.1,149.2c-1031.3,232.2-2533.5,609.4-3424.1,860.8c-462.4,130-1005.7,274.9-1210.3,321.7c-404.8,91.6-1018.5,260-1316.8,362.2C3083.3,3700,3062,3700,3002.3,3644.6z"/><path d="M2550.6,3165.2c-59.7-63.9-76.7-66.1-91.6-10.6c-8.5,34.1-29.8,42.6-100.2,42.6h-87.4l14.9-78.8c21.3-117.2,44.7-170.5,106.5-253.6c63.9-83.1,102.3-72.4,125.7,36.2c8.5,34.1,17,61.8,19.2,61.8c4.3,0,36.2-10.6,72.4-23.4l66.1-23.4l-63.9-100.1c-34.1-57.5-61.8-108.7-61.8-117.2c0-19.2,95.9-14.9,153.4,6.4c66,25.6,110.8,157.7,74.6,217.3c-19.2,32-14.9,49,36.2,102.3c57.5,59.7,59.7,68.2,34.1,130c-25.6,59.7-34.1,63.9-136.4,63.9C2620.9,3218.4,2591.1,3207.8,2550.6,3165.2z"/></g></g>
</svg>