<?xml version="1.0" encoding="utf-8"?>
<!-- Svg Vector Icons : http://www.onlinewebfonts.com/icon -->
<!DOCTYPE svg PUBLIC "-//W3C//DTD SVG 1.1//EN" "http://www.w3.org/Graphics/SVG/1.1/DTD/svg11.dtd">
<svg version="1.1" xmlns="http://www.w3.org/2000/svg" xmlns:xlink="http://www.w3.org/1999/xlink" x="0px" y="0px" viewBox="0 0 1000 1000" enable-background="new 0 0 1000 1000" xml:space="preserve">
<metadata> Svg Vector Icons : http://www.onlinewebfonts.com/icon </metadata>
<g><g transform="translate(0.000000,511.000000) scale(0.100000,-0.100000)"><path d="M3309.7,4981.4c-46.9-17-157.7-78.9-245.1-136.4c-196.1-127.9-852.7-417.8-1050.9-462.6c-183.3-40.5-422.1-10.7-498.8,61.8c-27.7,25.6-51.2,42.6-55.4,36.2c-4.3-4.3-55.4-70.3-113-147.1L1242,4194.8l-6.4-562.7l-6.4-560.6l-55.4-85.3c-34.1-49-172.7-170.5-334.7-292l-279.2-208.9l-106.6-283.5c-57.6-157.7-108.7-289.9-113-298.4c-2.1-6.4,21.3-27.7,53.3-49c34.1-19.2,104.4-76.7,159.9-125.8c93.8-87.4,102.3-100.2,125.8-251.5l25.6-159.9l-89.5-151.3l-87.4-151.3v-243c0-134.3,10.7-377.3,23.5-541.4l21.3-298.4l153.5-155.6l151.3-153.5h176.9h174.8l89.5-157.7l89.5-157.7l174.8-25.6l174.8-25.6l200.4-289.9l200.4-289.9l362.4-213.2c330.4-191.9,370.9-223.8,462.6-345.3l100.2-134.3l55.4-422.1c29.8-232.4,66.1-479.6,81-550c25.6-119.4,34.1-132.2,142.8-208.9c170.5-119.4,176.9-168.4,40.5-398.6l-108.7-179.1l14.9-164.1c12.8-151.4,23.4-174.8,140.7-358.1c115.1-179,136.4-200.4,249.4-251.5c66.1-32,191.8-70.4,279.2-85.3c125.8-21.3,172.7-40.5,226-91.7l66.1-63.9h552.1c827.1,0,2937.4,127.9,3570.5,215.3c264.3,36.2,486,74.6,492.4,87.4c8.5,10.7,19.2,81,27.7,155.6c12.8,119.4,4.3,155.6-68.2,364.5c-68.2,191.8-89.5,283.5-110.8,520.1c-21.3,226-40.5,319.7-87.4,432.7l-61.8,147.1l74.6,245.1c40.5,136.4,74.6,257.9,74.6,272.8c0,12.8,40.5,100.2,87.4,191.8l87.4,166.3l-66.1,353.8c-76.7,417.8-72.5,451.9,87.4,654.4c98.1,127.9,102.3,136.4,102.3,275c0,93.8-12.8,162-34.1,202.5c-34.1,53.3-34.1,70.3,0,204.6c19.2,81,44.7,215.3,55.4,296.3c17.1,113,63.9,234.5,191.8,500.9c91.7,194,221.7,481.7,287.8,639.5c104.5,245.1,123.6,307,125.8,428.5c0,78.9-4.3,149.2-10.7,155.6c-36.2,38.4-115.1-59.7-447.6-554.2c-236.6-351.7-394.3-567-454-616c-68.2-55.4-104.4-108.7-138.6-200.4c-34.1-95.9-59.7-132.2-117.2-162c-40.5-21.3-98-83.1-130-138.6c-55.4-93.8-63.9-100.2-125.8-87.4c-53.3,12.8-70.3,27.7-85.3,93.8c-19.2,70.4-6.4,104.5,142.8,419.9c89.5,187.6,164.1,349.6,164.1,360.2c0,12.8,44.8,61.8,98.1,113c53.3,51.2,125.8,147.1,159.9,213.2l61.8,121.5l-91.7,53.3c-49,29.8-119.4,83.1-153.5,117.2c-57.6,61.8-63.9,91.7-140.7,579.8c-44.8,283.5-87.4,520.1-93.8,528.6c-8.5,6.4-91.7,36.2-187.6,66.1c-170.5,53.3-174.8,57.6-243,172.7l-70.3,117.2l-622.4,134.3c-405,87.4-684.2,159.9-795.1,204.6c-315.5,130-927.3,283.5-1381.3,347.5l-417.8,59.7l-206.8,264.3c-110.8,147.1-206.8,270.7-211,275c-6.4,4.3-21.3-17.1-34.1-49c-36.2-78.9-134.3-76.7-176.9,4.3c-23.4,46.9-59.7,68.2-159.9,95.9c-176.9,49-245.1,44.8-353.8-19.2c-81-46.9-98.1-49-136.4-25.6c-25.6,14.9-44.8,38.4-44.8,51.2c0,95.9,174.8,415.7,302.7,554.2l59.7,64l-93.8,68.2C3418.4,5024,3424.8,5024,3309.7,4981.4z"/></g></g>
</svg>