<?xml version="1.0" encoding="utf-8"?>
<!-- Svg Vector Icons : http://www.onlinewebfonts.com/icon -->
<!DOCTYPE svg PUBLIC "-//W3C//DTD SVG 1.1//EN" "http://www.w3.org/Graphics/SVG/1.1/DTD/svg11.dtd">
<svg version="1.1" xmlns="http://www.w3.org/2000/svg" xmlns:xlink="http://www.w3.org/1999/xlink" x="0px" y="0px" viewBox="0 0 1000 1000" enable-background="new 0 0 1000 1000" xml:space="preserve">
<metadata> Svg Vector Icons : http://www.onlinewebfonts.com/icon </metadata>
<g><g transform="translate(0.000000,511.000000) scale(0.100000,-0.100000)"><path d="M3428.7,4910.6c-175.3-192.4-177.4-198.8-98.3-414.7c64.1-177.4,66.3-194.6,66.3-530.2c0-188.1-10.7-429.7-23.5-536.6c-10.7-104.8-34.2-389.1-49.2-630.7l-27.8-438.3l-143.2-245.9c-166.8-282.2-455.4-609.3-669.2-763.2l-136.8-98.3l-128.3,27.8c-128.3,27.8-128.3,27.8-194.5-34.2c-34.2-34.2-132.5-162.5-215.9-286.5c-83.4-124-181.7-267.2-222.3-318.5c-64.1-85.5-70.5-106.9-70.5-250.1c0-136.8,8.5-171,64.1-260.8c72.7-117.6,72.7-128.3,40.6-237.3c-19.2-62-47-92-126.1-136.8c-55.6-32.1-106.9-57.7-113.3-57.7c-6.4,0-27.8,51.3-44.9,113.3c-23.5,79.1-53.4,128.3-106.9,171c-85.5,66.3-100.5,68.4-181.7,25.7c-53.4-27.8-66.3-57.7-128.3-297.1c-57.7-233-66.3-305.7-66.3-553.7v-284.3l-104.8-102.6c-102.6-100.5-104.8-104.8-119.7-271.5l-12.8-171l-119.7-51.3c-85.5-38.5-156.1-53.4-256.5-53.4H100l15-335.7c21.4-442.5,44.9-493.8,280.1-628.5l164.6-94.1l38.5-136.8c29.9-102.6,74.8-183.8,194.5-339.9c297.2-387,500.3-594.3,724.7-733.3c186-117.6,220.2-149.6,348.5-327.1c213.8-297.1,269.4-342.1,481-399.8c177.4-47,181.7-47,342.1-8.6c149.7,34.2,173.2,47,305.7,173.2c77,74.8,147.5,136.8,156.1,136.8s72.7-34.2,141.1-77l126.1-79.1l280.1,62c156.1,32.1,292.9,70.6,305.7,85.5c15,12.8,68.4,139,117.6,277.9c51.3,141.1,100.5,260.8,109,271.5c6.4,8.6,85.5-10.7,173.2-42.8l160.3-55.6L4767-3876c196.7,147.5,203.1,151.8,286.5,132.5c100.5-23.5,119.7-12.8,254.4,126.1c102.6,104.7,104.8,109,115.5,267.2c8.6,141.1,4.3,175.3-38.5,254.4l-49.2,91.9l310,673.4C6043.3-1473,6207.9-983.5,6242.1-573c10.7,143.2,25.7,273.7,29.9,288.6c6.4,15,49.2,25.7,115.4,25.7h106.9l98.3-168.9C6721-650,6810.8-707.7,7028.8-707.7c83.4,0,151.8,4.3,151.8,10.7c0,4.3,29.9,151.8,66.3,325c36.3,173.2,79.1,412.6,91.9,530.2l23.5,213.8L7512,389c303.6,34.2,277.9,19.2,307.9,175.3l27.8,136.8l190.3,151.8c158.2,124,198.8,171,241.6,265.1c27.8,64.1,91.9,186,143.2,271.5c132.5,226.6,168.9,393.4,168.9,773.9c0,183.9,8.6,314.3,21.4,314.3c68.4,0,579.4-224.5,882.9-387c198.8-106.9,365.6-188.1,374.1-179.6c6.4,6.4,17.1,134.7,21.4,286.5l8.6,271.5l-207.4,192.4c-128.3,117.6-260.8,218.1-348.5,262.9c-79.1,38.5-179.6,100.5-224.5,136.8l-81.2,62l-117.6-32.1c-121.9-34.2-269.4-132.6-540.9-352.7l-156.1-128.3l-183.9-17.1c-153.9-12.8-194.6-8.5-254.4,23.5c-38.5,21.4-74.8,34.2-79.1,29.9c-2.1-4.3-55.6-81.2-115.4-168.9c-136.8-205.2-271.5-333.5-367.7-352.7c-220.2-42.8-224.5-44.9-378.4-252.3c-113.3-149.7-201-237.3-365.6-363.4c-203.1-156.1-218.1-162.5-226.6-117.6c-6.4,27.8-40.6,233-74.8,455.4c-64.1,401.9-175.3,940.7-203.1,966.3c-12.8,12.8-904.3-102.6-1582-209.5c-222.3-34.2-406.2-59.9-410.5-57.7c-2.1,4.3-96.2,536.6-209.5,1182.2c-113.3,647.8-211.6,1203.6-222.3,1237.8l-15,62L3428.7,4910.6z"/></g></g>
</svg>