<?xml version="1.0" encoding="utf-8"?>
<!-- Svg Vector Icons : http://www.onlinewebfonts.com/icon -->
<!DOCTYPE svg PUBLIC "-//W3C//DTD SVG 1.1//EN" "http://www.w3.org/Graphics/SVG/1.1/DTD/svg11.dtd">
<svg version="1.1" xmlns="http://www.w3.org/2000/svg" xmlns:xlink="http://www.w3.org/1999/xlink" x="0px" y="0px" viewBox="0 0 1000 1000" enable-background="new 0 0 1000 1000" xml:space="preserve">
<metadata> Svg Vector Icons : http://www.onlinewebfonts.com/icon </metadata>
<g><g transform="translate(0.000000,511.000000) scale(0.100000,-0.100000)"><path d="M1195,4133.9c-6.4-38.4-34.1-251.5-64-475.4c-74.6-594.8-324-2146.7-567-3547.2c-211-1215.1-486-3037.7-462.6-3061.2c27.7-27.7,460.4-78.9,1509.3-181.2c1172.5-115.1,4747.4-509.5,6580.7-729.1c611.8-72.5,1117-127.9,1123.4-121.5c4.2,4.3,91.7,814.3,191.9,1799.2c142.8,1400.5,194,1997.4,236.6,2739.3c27.7,522.3,78.9,1311,108.7,1754.4c32,441.3,53.3,810.1,46.9,814.3c-6.4,6.4-238.8,29.8-520.2,53.3c-780.2,64-2916.2,287.8-3670.8,383.7c-637.4,83.1-2587.9,362.4-3847.8,552.1c-315.5,49-590.5,87.4-611.8,87.4C1218.4,4202.1,1203.5,4182.9,1195,4133.9z"/></g></g>
</svg>